<svg width="44" height="60" viewBox="0 0 44 60" version="1.1" xmlns="http://www.w3.org/2000/svg" xmlns:xlink="http://www.w3.org/1999/xlink">
    <title>buddha</title>
    <desc>Created using Figma</desc>
    <g id="Canvas" transform="translate(72 -2447)">
        <g id="buddha">
            <g id="Shape">
                <use xlink:href="#path0_fill" transform="translate(-71.9058 2447)"/>
            </g>
            <g id="Shape">
                <use xlink:href="#path1_fill" transform="translate(-63.9098 2481.9)"/>
            </g>
            <g id="Shape">
                <use xlink:href="#path2_fill" transform="translate(-47.445 2481.9)"/>
            </g>
            <g id="Oval">
                <use xlink:href="#path3_fill" transform="translate(-51.1734 2477.39)"/>
            </g>
            <g id="Shape">
                <use xlink:href="#path4_fill" transform="translate(-55.9616 2492.39)"/>
            </g>
            <g id="Shape">
                <use xlink:href="#path5_fill" transform="translate(-53.1666 2498.57)"/>
            </g>
            <g id="Shape">
                <use xlink:href="#path6_fill" transform="translate(-60.007 2479.26)"/>
            </g>
            <g id="Shape">
                <use xlink:href="#path7_fill" transform="translate(-44.5482 2479.29)"/>
            </g>
        </g>
    </g>
    <defs>
        <path id="path0_fill" fill-rule="evenodd" d="M 43.1967 28.6406C 43.1967 29.5735 42.7914 30.4138 42.1471 30.9961C 43.1715 31.9705 43.8118 33.3425 43.8115 34.8613L 43.8115 41.0613C 43.8115 43.896 41.5853 46.2212 38.7829 46.3962L 38.7712 46.4854C 38.7657 46.5283 38.7602 46.5713 38.7536 46.614C 38.6645 47.1929 38.1209 47.5896 37.5399 47.5012C 36.9587 47.4121 36.5599 46.8708 36.6492 46.292C 36.7554 45.6033 36.8092 44.8979 36.8092 44.196L 36.8092 30.575L 36.8092 28.8235C 36.8092 27.8342 36.5885 26.896 36.1955 26.0525C 36.1487 25.968 36.1059 25.8806 36.0667 25.7915C 34.9615 23.6694 32.7365 22.2158 30.1756 22.2158L 13.636 22.2158C 9.97823 22.2158 7.00235 25.1799 7.00235 28.8235L 7.00235 30.5747L 7.00235 44.1958C 7.00235 51.7407 13.1647 57.8792 20.7394 57.8792L 23.0724 57.8792C 28.0415 57.8792 32.6381 55.1931 35.0682 50.8691C 35.3554 50.3582 36.0038 50.1758 36.5172 50.4617C 37.0302 50.7478 37.2132 51.394 36.926 51.905C 34.1199 56.8982 28.8115 60 23.0724 60L 20.7394 60C 12.7402 60 6.10588 54.0725 5.02765 46.396C 2.22588 46.2205 0 43.8955 0 41.061L 0 34.8613C 0 33.3438 0.638939 31.9731 1.66177 30.999C 1.01906 30.4167 0.614944 29.5776 0.614944 28.646C 0.614944 27.5632 1.16129 26.6057 1.99329 26.0308C 1.75011 25.582 1.61176 25.0691 1.61176 24.5244C 1.61176 22.9526 2.76212 21.6445 4.26776 21.3892C 4.26435 21.3286 4.26212 21.2676 4.26212 21.2061C 4.26212 20.3203 4.62776 19.5183 5.21612 18.9412C 4.78529 18.3989 4.5273 17.7148 4.5273 16.9712C 4.5273 15.217 5.96 13.79 7.72094 13.79C 8.01435 13.79 8.29824 13.8306 8.56835 13.9045C 8.89035 13.1028 9.5307 12.4612 10.3332 12.1353C 10.2459 11.8457 10.1984 11.5393 10.1984 11.2217C 10.1984 9.71338 11.2582 8.44775 12.6749 8.12256C 12.6255 7.90063 12.5987 7.67017 12.5987 7.43359C 12.5987 5.67944 14.0314 4.25244 15.7924 4.25244C 16.2876 4.25244 16.7572 4.36548 17.1762 4.56689C 16.9718 4.14795 16.8568 3.67749 16.8568 3.18115C 16.8568 1.427 18.2895 0 20.0505 0C 20.8678 0 21.6141 0.307617 22.1795 0.812744C 22.7449 0.307861 23.4913 0 24.3086 0C 26.0695 0 27.5022 1.427 27.5022 3.18115C 27.5022 3.67749 27.3874 4.14771 27.1828 4.56689C 27.6016 4.36523 28.0712 4.25244 28.5667 4.25244C 30.3276 4.25244 31.7604 5.67944 31.7604 7.43359C 31.7604 7.68994 31.7289 7.93896 31.6712 8.17773C 33.0896 8.50195 34.1512 9.76807 34.1512 11.2778C 34.1512 11.5757 34.1088 11.864 34.0316 12.1377C 34.8286 12.4629 35.4648 13.1001 35.7873 13.896C 36.0601 13.8201 36.3471 13.7788 36.6436 13.7788C 38.4046 13.7788 39.8373 15.2058 39.8373 16.96C 39.8373 17.8579 39.4613 18.6697 38.8585 19.2485C 39.2809 19.7881 39.5338 20.4658 39.5338 21.2017C 39.5338 21.2634 39.5315 21.3247 39.528 21.3857C 41.0355 21.6396 42.1876 22.9487 42.1876 24.5215C 42.1876 25.063 42.0508 25.5728 41.8104 26.0195C 42.6469 26.594 43.1967 27.5542 43.1967 28.6406ZM 4.00553 27.6045C 3.94165 27.5923 3.87611 27.5854 3.80871 27.5854C 3.22165 27.5854 2.74412 28.061 2.74412 28.646C 2.74412 29.2307 3.22165 29.7063 3.80871 29.7063C 3.88177 29.7063 3.95318 29.699 4.022 29.6848L 4.03718 29.6809C 4.51447 29.5764 4.87306 29.1523 4.87306 28.646C 4.87306 28.1548 4.53588 27.7417 4.08024 27.6218L 4.05263 27.6155L 4.00553 27.6045ZM 4.87329 44.1958L 4.87329 44.2495C 3.32117 44.0117 2.12917 42.6724 2.12917 41.061L 2.12917 34.8613C 2.12917 33.356 3.16976 32.0889 4.57188 31.7344L 4.61035 31.7256C 4.69682 31.7048 4.78423 31.6865 4.87318 31.6729L 4.87329 44.1958ZM 4.60894 25.5657C 4.67282 25.5779 4.73835 25.5847 4.80576 25.5847C 5.39282 25.5847 5.87035 25.1091 5.87035 24.5244C 5.87035 23.9395 5.39282 23.4639 4.80576 23.4639C 4.2187 23.4639 3.74129 23.9397 3.74141 24.5244C 3.74141 25.0154 4.07858 25.4285 4.53423 25.5483L 4.56184 25.5547L 4.60894 25.5657ZM 7.456 22.2666C 6.86894 22.2666 6.39141 21.791 6.39141 21.2063C 6.39141 20.6213 6.86894 20.1458 7.456 20.1458C 7.84012 20.1458 8.17624 20.3501 8.36341 20.6545C 8.39012 20.7119 8.418 20.7688 8.448 20.8242C 8.49424 20.9429 8.52059 21.0715 8.52059 21.2063C 8.52059 21.791 8.04306 22.2666 7.456 22.2666ZM 6.65659 16.9712C 6.65659 17.5559 7.13412 18.0315 7.72118 18.0315C 8.30823 18.0315 8.78576 17.5559 8.78576 16.9712C 8.78576 16.3862 8.30823 15.9106 7.72118 15.9106C 7.13412 15.9106 6.65659 16.3862 6.65659 16.9712ZM 24.3088 2.12085C 24.8959 2.12085 25.3734 2.59644 25.3734 3.1814C 25.3734 3.76611 24.8959 4.2417 24.3088 4.2417C 23.7218 4.2417 23.2442 3.76611 23.2442 3.1814C 23.2442 2.59644 23.7218 2.12085 24.3088 2.12085ZM 25.3734 7.43384C 25.3734 6.84888 24.8959 6.37329 24.3088 6.37329C 23.7218 6.37329 23.2442 6.84888 23.2442 7.43384C 23.2442 8.01855 23.7218 8.49414 24.3088 8.49414C 24.8959 8.49414 25.3734 8.01855 25.3734 7.43384ZM 20.0506 2.12085C 20.6376 2.12085 21.1152 2.59644 21.1152 3.1814C 21.1152 3.76611 20.6376 4.2417 20.0506 4.2417C 19.4635 4.2417 18.986 3.76611 18.986 3.1814C 18.986 2.59644 19.4635 2.12085 20.0506 2.12085ZM 21.1152 7.43384C 21.1152 6.84888 20.6376 6.37329 20.0506 6.37329C 19.4635 6.37329 18.986 6.84888 18.986 7.43384C 18.986 8.01855 19.4635 8.49414 20.0506 8.49414C 20.6376 8.49414 21.1152 8.01855 21.1152 7.43384ZM 15.7925 6.37329C 16.3795 6.37329 16.8571 6.84888 16.8571 7.43384C 16.8571 8.01855 16.3795 8.49414 15.7925 8.49414C 15.2054 8.49414 14.7279 8.01855 14.7279 7.43384C 14.7279 6.84888 15.2054 6.37329 15.7925 6.37329ZM 10.3556 19.8755C 10.5428 20.1802 10.8789 20.3843 11.2631 20.3843C 11.8501 20.3843 12.3276 19.9087 12.3276 19.324C 12.3276 18.739 11.8501 18.2634 11.2631 18.2634C 10.676 18.2634 10.1985 18.739 10.1985 19.324C 10.1985 19.4587 10.2248 19.5872 10.2711 19.7058C 10.3011 19.7612 10.3289 19.8181 10.3556 19.8755ZM 11.5344 16.1426C 10.9473 16.1426 10.4698 15.667 10.4698 15.0823C 10.4698 14.4973 10.9473 14.0217 11.5344 14.0217C 12.1214 14.0217 12.5989 14.4976 12.5989 15.0823C 12.5988 15.667 12.1214 16.1426 11.5344 16.1426ZM 12.3275 11.2219C 12.3275 11.8066 12.8051 12.2822 13.3921 12.2822C 13.9792 12.2822 14.4567 11.8066 14.4567 11.2219C 14.4567 10.637 13.9792 10.1614 13.3921 10.1614C 12.8051 10.1614 12.3275 10.637 12.3275 11.2219ZM 15.5213 20.095C 14.9342 20.095 14.4567 19.6194 14.4567 19.0347C 14.4567 18.4497 14.9342 17.9741 15.5213 17.9741C 16.1084 17.9741 16.5859 18.4497 16.5859 19.0347C 16.5859 19.6194 16.1084 20.095 15.5213 20.095ZM 14.7279 14.7932C 14.7279 15.3779 15.2054 15.8535 15.7925 15.8535C 16.3795 15.8535 16.8571 15.3779 16.8571 14.7932C 16.8571 14.2085 16.3795 13.7327 15.7925 13.7327C 15.2054 13.7327 14.7279 14.2083 14.7279 14.7932ZM 17.9215 12.1685C 17.3345 12.1685 16.8569 11.6929 16.8569 11.1082C 16.8569 10.5232 17.3345 10.0476 17.9215 10.0476C 18.5086 10.0476 18.9861 10.5234 18.9861 11.1082C 18.9861 11.6929 18.5086 12.1685 17.9215 12.1685ZM 18.7148 19.0347C 18.7148 19.6194 19.1923 20.095 19.7794 20.095C 20.3665 20.095 20.844 19.6194 20.844 19.0347C 20.844 18.4497 20.3665 17.9741 19.7794 17.9741C 19.1923 17.9741 18.7148 18.4497 18.7148 19.0347ZM 20.0506 15.8535C 19.4635 15.8535 18.986 15.3779 18.986 14.7932C 18.986 14.2083 19.4635 13.7327 20.0506 13.7327C 20.6376 13.7327 21.1152 14.2083 21.1152 14.7932C 21.1152 15.3779 20.6376 15.8535 20.0506 15.8535ZM 21.1152 11.1082C 21.1152 11.6929 21.5927 12.1685 22.1798 12.1685C 22.7668 12.1685 23.2444 11.6929 23.2444 11.1082C 23.2444 10.5232 22.7668 10.0476 22.1798 10.0476C 21.5927 10.0476 21.1152 10.5232 21.1152 11.1082ZM 24.0375 20.095C 23.4505 20.095 22.9729 19.6194 22.9729 19.0347C 22.9729 18.4497 23.4505 17.9741 24.0375 17.9741C 24.6246 17.9741 25.1021 18.4497 25.1021 19.0347C 25.1021 19.6194 24.6246 20.095 24.0375 20.095ZM 23.2442 14.7932C 23.2442 15.3779 23.7218 15.8535 24.3088 15.8535C 24.8959 15.8535 25.3734 15.3779 25.3734 14.7932C 25.3734 14.2083 24.8959 13.7327 24.3088 13.7327C 23.7218 13.7327 23.2442 14.2083 23.2442 14.7932ZM 26.4379 12.1685C 25.8508 12.1685 25.3733 11.6929 25.3733 11.1082C 25.3733 10.5232 25.8508 10.0476 26.4379 10.0476C 27.0249 10.0476 27.5025 10.5232 27.5025 11.1082C 27.5025 11.6929 27.0249 12.1685 26.4379 12.1685ZM 27.2311 19.0347C 27.2311 19.6194 27.7086 20.095 28.2956 20.095C 28.8827 20.095 29.3602 19.6194 29.3602 19.0347C 29.3602 18.4497 28.8827 17.9741 28.2956 17.9741C 27.7086 17.9741 27.2311 18.4497 27.2311 19.0347ZM 28.5669 15.8535C 27.9799 15.8535 27.5024 15.3779 27.5024 14.7932C 27.5024 14.2083 27.9799 13.7327 28.5669 13.7327C 29.154 13.7327 29.6315 14.2083 29.6315 14.7932C 29.6315 15.3779 29.154 15.8535 28.5669 15.8535ZM 27.5024 7.43384C 27.5024 8.01855 27.9799 8.49414 28.5669 8.49414C 29.154 8.49414 29.6315 8.01855 29.6315 7.43384C 29.6315 6.84888 29.154 6.37329 28.5669 6.37329C 27.9799 6.37329 27.5024 6.84888 27.5024 7.43384ZM 30.9579 12.3384C 30.3708 12.3384 29.8933 11.8628 29.8933 11.2781C 29.8933 10.6931 30.3708 10.2175 30.9579 10.2175C 31.5449 10.2175 32.0222 10.6929 32.0222 11.2778C 32.0222 11.6658 31.8112 12.0049 31.498 12.1897C 31.4466 12.2131 31.3961 12.2378 31.3462 12.2639C 31.2259 12.3115 31.0951 12.3384 30.9579 12.3384ZM 33.3958 19.9705C 33.4488 19.845 33.5106 19.7239 33.5788 19.6069C 33.6039 19.5166 33.6184 19.4221 33.6185 19.324C 33.6185 18.739 33.1409 18.2634 32.5539 18.2634C 31.9668 18.2634 31.4893 18.739 31.4893 19.324C 31.4893 19.9087 31.9668 20.3843 32.5539 20.3843C 32.8965 20.3843 33.2009 20.2217 33.3958 19.9705ZM 32.8251 16.1428C 32.238 16.1428 31.7605 15.667 31.7605 15.0823C 31.7605 14.6941 31.9715 14.355 32.2847 14.1702C 32.3361 14.147 32.3867 14.1221 32.4366 14.0962C 32.5571 14.0488 32.688 14.022 32.8251 14.022C 33.4121 14.022 33.8896 14.4976 33.8896 15.0825C 33.8896 15.667 33.4121 16.1428 32.8251 16.1428ZM 35.2758 21.2014C 35.2758 21.7861 35.7533 22.262 36.3404 22.262C 36.9273 22.262 37.4049 21.7864 37.4049 21.2017C 37.4049 20.6167 36.9274 20.1411 36.3404 20.1411C 35.9978 20.1411 35.6933 20.3037 35.4985 20.5549C 35.4453 20.6804 35.3836 20.8018 35.3154 20.9185C 35.2902 21.0088 35.2758 21.1033 35.2758 21.2014ZM 36.6436 18.0203C 36.0566 18.0203 35.5791 17.5447 35.5791 16.96C 35.5791 16.375 36.0566 15.8994 36.6436 15.8994C 37.2307 15.8994 37.7082 16.375 37.7082 16.96C 37.7082 17.5447 37.2307 18.0203 36.6436 18.0203ZM 40.0031 29.7009C 40.5901 29.7009 41.0676 29.2253 41.0676 28.6406C 41.0676 28.0557 40.5901 27.5801 40.0031 27.5801C 39.9334 27.5801 39.8655 27.5872 39.7995 27.6001L 39.7644 27.6084L 39.7399 27.6143C 39.28 27.7312 38.9385 28.1462 38.9385 28.6406C 38.9385 29.2253 39.416 29.7009 40.0031 29.7009ZM 38.0878 25.0747C 38.0685 25.0344 38.0482 24.9946 38.0278 24.9551L 38.0041 24.9087C 37.9566 24.7886 37.9296 24.6582 37.9296 24.5217C 37.9296 23.9368 38.4072 23.4612 38.9942 23.4612C 39.5813 23.4612 40.0588 23.937 40.0588 24.5217C 40.0588 25.0159 39.7173 25.4309 39.2574 25.5479L 39.2321 25.5537L 39.1978 25.562C 39.1318 25.575 39.0639 25.582 38.9942 25.582C 38.6108 25.582 38.2751 25.3782 38.0878 25.0747ZM 38.9385 44.2495C 40.4906 44.0117 41.6826 42.6724 41.6826 41.061L 41.6826 34.8613C 41.6826 33.2498 40.4906 31.9106 38.9385 31.6729L 38.9385 44.196L 38.9385 44.2495Z"/>
        <path id="path1_fill" d="M 10.7787 1.16227L 9.73788 0.805781C 9.43835 0.703242 9.10835 0.73875 8.83788 0.903047C 8.82224 0.912539 7.24082 1.83961 5.68718 1.58156C 4.24082 1.34145 3.55294 0.519492 3.48459 0.433359C 3.28612 0.147422 2.97541 0 2.62588 0L 1.06459 0C 0.476588 0 0 0.474727 0 1.06043C 0 1.64613 0.476471 2.12086 1.06459 2.12086L 2.15412 2.12086C 2.67129 2.62441 3.70306 3.40219 5.33706 3.67336C 5.64424 3.72445 5.948 3.7466 6.24471 3.7466C 7.62341 3.7466 8.84329 3.26637 9.48047 2.96027L 10.0866 3.16781C 10.6419 3.35766 11.2482 3.06363 11.4394 2.5098C 11.6306 1.95598 11.3347 1.35258 10.7787 1.16227Z"/>
        <path id="path2_fill" d="M 10.4326 0L 8.87131 0C 8.5299 0 8.2092 0.163125 8.00908 0.43875C 8.00261 0.447656 7.29955 1.3343 5.81049 1.58156C 4.25155 1.8402 2.67214 0.91043 2.65955 0.903047C 2.38896 0.73875 2.05931 0.703242 1.75955 0.805781L 0.718726 1.16227C 0.162726 1.3527 -0.133039 1.95598 0.0581374 2.5098C 0.249432 3.06375 0.855431 3.35777 1.41096 3.16781L 2.01708 2.96027C 2.65426 3.26637 3.87402 3.74684 5.25284 3.7466C 5.5492 3.74648 5.8532 3.72422 6.16037 3.67336C 7.79426 3.40219 8.82602 2.62441 9.3432 2.12086L 10.4327 2.12086C 11.0207 2.12086 11.4973 1.64613 11.4973 1.06043C 11.4973 0.474727 11.0207 0 10.4326 0Z"/>
        <path id="path3_fill" d="M 1.06459 2.12086C 1.65254 2.12086 2.12918 1.64609 2.12918 1.06043C 2.12918 0.474771 1.65254 0 1.06459 0C 0.476632 0 0 0.474771 0 1.06043C 0 1.64609 0.476632 2.12086 1.06459 2.12086Z"/>
        <path id="path4_fill" d="M 10.7167 0C 10.1287 0 9.65212 0.474727 9.65212 1.06043C 9.65212 2.06098 8.81529 2.87484 7.78659 2.87484L 3.99471 2.87484C 2.96612 2.87484 2.12918 2.06086 2.12918 1.06043C 2.12918 0.474844 1.65271 0 1.06459 0C 0.476588 0 0 0.474727 0 1.06043C 0 3.23039 1.792 4.99559 3.99459 4.99559L 7.78647 4.99559C 9.98906 4.99559 11.7811 3.23039 11.7811 1.06043C 11.7813 0.474844 11.3048 0 10.7167 0Z"/>
        <path id="path5_fill" d="M 5.44552 0.887513C 5.10399 0.609661 4.17011 -0.0332294 2.84646 0.00134092C 1.61987 0.0333331 0.767047 0.615521 0.367753 0.959817C -0.0765997 1.34314 -0.125188 2.01286 0.259753 2.45548C 0.470106 2.69771 0.766812 2.82181 1.06493 2.82181C 1.31175 2.82181 1.55987 2.73673 1.76128 2.56306C 1.90928 2.43521 2.31716 2.1365 2.90199 2.12126C 3.51258 2.10579 3.94069 2.40193 4.09822 2.53001C 4.55375 2.90056 5.22434 2.83318 5.59622 2.37954C 5.96834 1.92603 5.90069 1.25794 5.44552 0.887513Z"/>
        <path id="path6_fill" d="M 4.1996 0.773135C 3.84266 0.53501 3.51007 0.280831 3.09631 0.148643C 2.2409 -0.124755 1.28972 -0.0176458 0.518189 0.442198C 0.0136008 0.742901 -0.150634 1.39399 0.15113 1.89661C 0.453013 2.39923 1.10678 2.56282 1.61125 2.26212C 2.16254 1.93388 2.56678 2.23634 3.01454 2.53517C 3.19654 2.65657 3.40231 2.7147 3.60619 2.7147C 3.94925 2.7147 4.28619 2.5497 4.49148 2.24442C 4.81866 1.75774 4.68807 1.09915 4.1996 0.773135Z"/>
        <path id="path7_fill" d="M 4.15909 0.449207C 3.38945 -0.0142696 2.43839 -0.125129 1.58168 0.144754C 1.16745 0.275301 0.833917 0.528074 0.476035 0.764676C -0.0139649 1.08846 -0.147377 1.74659 0.177682 2.23456C 0.382623 2.54206 0.720859 2.70858 1.06568 2.70858C 1.26792 2.70858 1.47239 2.65128 1.65333 2.53163C 2.10168 2.23526 2.50874 1.93339 3.05756 2.26397C 3.56051 2.56679 4.21474 2.40647 4.51945 1.90526C 4.82356 1.40405 4.66227 0.752254 4.15909 0.449207Z"/>
    </defs>
</svg>
