<svg width="60" height="46" viewBox="0 0 60 46" version="1.1" xmlns="http://www.w3.org/2000/svg" xmlns:xlink="http://www.w3.org/1999/xlink">
    <title>Shape</title>
    <desc>Created using Figma</desc>
    <g id="Canvas" transform="translate(-714 -2454)">
        <g id="Shape">
            <use xlink:href="#path0_fill" transform="translate(714 2454.38)"/>
        </g>
    </g>
    <defs>
        <path id="path0_fill" fill-rule="evenodd" d="M 58.8457 14.25C 59.1647 14.209 59.4747 14.3091 59.6977 14.532C 59.9217 14.7561 60.0257 15.071 59.9777 15.385L 58.5647 25.0801C 57.2527 34.095 48.8497 42.498 39.8337 43.811L 30.7947 45.1289L 30.7917 45.1521L 30.7507 45.135L 30.1397 45.2241C 30.0907 45.231 30.0427 45.2351 29.9947 45.2351C 29.9467 45.2351 29.8987 45.231 29.8497 45.2241L 29.2607 45.1379L 29.2097 45.1589L 29.2047 45.1289L 20.1547 43.8101C 11.1407 42.498 2.73669 34.095 1.42267 25.0791L 0.0106812 15.384C -0.0353394 15.071 0.0686646 14.7561 0.292664 14.532C 0.515686 14.3101 0.829712 14.209 1.14471 14.25L 7.58472 15.188L 8.36371 6.28003L 18.9117 11.199C 19.7727 11.5701 20.6417 12.0359 21.4977 12.5811C 22.0297 11.4819 22.6377 10.4451 23.3357 9.50903L 29.9947 0L 36.6707 9.53296C 37.3617 10.459 37.9647 11.488 38.4927 12.5801C 39.3507 12.0349 40.2247 11.5659 41.1057 11.186L 51.6267 6.28003L 52.4057 15.188L 58.8457 14.25ZM 49.8837 9.30005L 41.9247 13.012C 41.0257 13.3979 40.1477 13.876 39.2937 14.4412L 39.304 14.4717C 39.3077 14.4834 39.3114 14.4949 39.3157 14.5061C 39.4017 14.741 39.4807 14.98 39.5597 15.22C 39.6327 15.4431 39.7037 15.666 39.7707 15.8911L 39.7799 15.9226C 39.8348 16.1099 39.8895 16.2969 39.9397 16.4871C 40.0247 16.8062 40.1017 17.1279 40.1737 17.4521C 40.1852 17.5044 40.1976 17.5564 40.2099 17.6084C 40.2276 17.6829 40.2454 17.7576 40.2607 17.833C 40.3497 18.269 40.4297 18.707 40.4947 19.1501C 40.5966 19.0811 40.6996 19.0159 40.8027 18.9509L 40.8052 18.9492C 40.8672 18.9102 40.9291 18.8711 40.9907 18.8311L 41.0712 18.7795L 41.1517 18.728C 42.1057 18.124 43.0827 17.6001 44.0767 17.1589L 44.3037 17.0601C 45.2947 16.635 46.2977 16.292 47.3077 16.0371C 47.4187 16.0081 47.5297 15.9819 47.6407 15.9561C 48.1437 15.8391 48.6467 15.7351 49.1507 15.6621L 50.4247 15.4771L 49.8837 9.30005ZM 10.1077 9.30005L 18.0937 13.0251C 18.9707 13.4021 19.8437 13.8779 20.6977 14.4421L 20.6827 14.4861L 20.6717 14.519C 20.5897 14.7432 20.5137 14.9722 20.4387 15.2C 20.3607 15.4331 20.2867 15.668 20.2167 15.9041L 20.2114 15.9219L 20.2082 15.9331C 20.155 16.1152 20.1021 16.2969 20.0527 16.481C 19.9657 16.8062 19.8867 17.135 19.8137 17.4651C 19.8018 17.5193 19.7891 17.5732 19.7764 17.6272C 19.7603 17.6956 19.7442 17.7637 19.7297 17.833C 19.6396 18.269 19.5607 18.708 19.4947 19.1521C 19.3863 19.0786 19.2766 19.0093 19.167 18.9402L 19.0077 18.8391C 18.9496 18.801 18.8917 18.7642 18.8327 18.7271C 17.8807 18.124 16.9057 17.6021 15.9137 17.1611C 15.8597 17.137 15.8064 17.1138 15.7527 17.0906L 15.738 17.0842L 15.6866 17.062C 14.6967 16.636 13.6927 16.293 12.6827 16.0381C 12.5717 16.01 12.4607 15.9832 12.3487 15.957C 11.8457 15.8401 11.3427 15.7361 10.8387 15.6631L 9.56567 15.4771L 10.1077 9.30005ZM 3.40167 24.79C 4.59766 32.9922 12.2427 40.6382 20.4447 41.832L 28.8157 43.051L 27.5957 34.6831C 27.5127 34.1172 27.3937 33.55 27.2477 32.9832C 27.2337 32.9277 27.2169 32.873 27.2001 32.8184C 27.1868 32.7751 27.1736 32.7319 27.1617 32.6882C 27.0257 32.1992 26.8737 31.7112 26.6937 31.2261C 26.6813 31.1924 26.6681 31.1592 26.6548 31.1255L 26.6512 31.1165L 26.6489 31.1104L 26.6177 31.031C 25.2847 27.5681 22.8457 24.2651 19.6807 21.7661C 18.0307 20.4641 16.2727 19.446 14.4767 18.7241L 14.3966 18.6919C 14.2237 18.6226 14.0518 18.5537 13.8777 18.4912C 13.6687 18.416 13.4587 18.3472 13.2497 18.28C 12.9727 18.1921 12.6947 18.1101 12.4147 18.0361L 12.3087 18.0078C 12.1787 17.9727 12.0484 17.9377 11.9187 17.9072C 11.4657 17.801 11.0097 17.707 10.5517 17.6401L 7.41071 17.1831L 2.18268 16.4221L 3.40167 24.79ZM 30.7757 32.614C 30.6287 33.2041 30.5057 33.7971 30.4187 34.395L 30.2077 35.844L 30.1907 35.679L 29.9717 37.1379L 29.5717 34.395C 29.4847 33.7971 29.3617 33.2031 29.2147 32.613C 29.1644 32.4094 29.1021 32.2075 29.0399 32.0056C 29.0156 31.9268 28.9913 31.8479 28.9677 31.769L 28.9089 31.5706L 28.9068 31.5637C 28.8414 31.342 28.7759 31.1204 28.6987 30.9011C 28.5697 30.5271 28.4187 30.1589 28.2667 29.791L 28.2082 29.6487L 28.2075 29.647C 28.1549 29.5186 28.1025 29.3906 28.0457 29.2639C 27.8568 28.8391 27.6507 28.4211 27.4327 28.0042C 27.3807 27.905 27.3287 27.8071 27.2747 27.709C 27.0247 27.249 26.7597 26.7949 26.4757 26.3481L 26.4247 26.27C 25.2817 24.488 23.8707 22.825 22.2297 21.3372L 22.1095 21.2273L 22.106 21.2241C 21.9439 21.0757 21.7824 20.928 21.6157 20.7852C 21.5751 20.7502 21.5361 20.7141 21.4973 20.678C 21.4499 20.634 21.4026 20.5903 21.3527 20.5491C 21.3807 20.2639 21.4107 19.979 21.4487 19.697C 21.4563 19.6406 21.4631 19.5835 21.4698 19.5266C 21.4808 19.4333 21.4918 19.3398 21.5067 19.248C 21.5877 18.731 21.6857 18.219 21.8027 17.7141C 21.814 17.6653 21.8269 17.6177 21.8398 17.5701C 21.8497 17.5334 21.8596 17.4968 21.8687 17.46C 21.9767 17.02 22.0957 16.584 22.2307 16.155C 22.2515 16.0876 22.2737 16.0215 22.2961 15.9551L 22.3029 15.9348L 22.3287 15.8582C 22.4727 15.4241 22.6277 14.9961 22.7997 14.575C 23.3767 13.157 24.0947 11.8391 24.9587 10.6812L 29.9967 3.48804L 35.0517 10.7061C 35.7877 11.6931 36.4247 12.7961 36.9547 13.9851L 36.9997 14.093C 37.0408 14.187 37.0787 14.2834 37.1166 14.3801L 37.1207 14.3904C 37.1425 14.4458 37.1642 14.5012 37.1867 14.5562C 37.3617 14.9851 37.5207 15.4221 37.6667 15.864L 37.6884 15.9287C 37.7134 16.0032 37.7385 16.0779 37.7617 16.1531C 37.8967 16.5811 38.0147 17.0151 38.1217 17.4541C 38.1321 17.4978 38.1438 17.541 38.1555 17.5842L 38.1569 17.5894C 38.1682 17.6313 38.1796 17.6733 38.1897 17.7161C 38.3067 18.22 38.4037 18.73 38.4847 19.2461C 38.4988 19.335 38.5095 19.4248 38.5202 19.5149L 38.5208 19.5193C 38.528 19.5806 38.5353 19.6421 38.5437 19.7031C 38.5817 19.9841 38.6117 20.2671 38.6387 20.551C 38.5871 20.5933 38.5388 20.6382 38.4905 20.6833L 38.4891 20.6846C 38.45 20.7212 38.4108 20.7578 38.3698 20.793C 38.2161 20.9246 38.0672 21.0605 37.9181 21.1968L 37.7797 21.323C 36.1287 22.8171 34.7097 24.488 33.5617 26.28L 33.5187 26.3459C 33.2318 26.7971 32.9657 27.2529 32.7137 27.717C 32.6627 27.811 32.6117 27.906 32.5627 28C 32.3427 28.4189 32.1357 28.8411 31.9457 29.269C 31.8922 29.3877 31.8431 29.5076 31.7939 29.6277L 31.7903 29.6362L 31.7287 29.7861C 31.5757 30.158 31.4237 30.5281 31.2937 30.905C 31.2163 31.127 31.1499 31.3516 31.0835 31.5762L 31.0277 31.7639L 30.9683 31.9534C 30.8993 32.1719 30.83 32.3916 30.7757 32.614ZM 39.5467 41.832C 47.7487 40.637 55.3937 32.9922 56.5887 24.79L 57.8097 16.4241L 52.5817 17.1851L 49.4407 17.6421C 48.9827 17.709 48.5277 17.803 48.0737 17.9092C 47.9536 17.9373 47.8336 17.9697 47.7134 18.0022L 47.5757 18.0391C 47.2967 18.113 47.0197 18.1941 46.7437 18.282C 46.5337 18.3491 46.3237 18.418 46.1137 18.4941C 45.9439 18.5552 45.7756 18.6228 45.6075 18.6902L 45.5177 18.7261C 43.7207 19.448 41.9617 20.4661 40.3117 21.769L 40.2987 21.7791C 37.6377 23.884 35.4857 26.5562 34.0787 29.4141C 33.8157 29.947 33.5847 30.488 33.3757 31.032L 33.3516 31.0928C 33.3334 31.1382 33.3153 31.1833 33.2987 31.229C 33.1187 31.7122 32.9677 32.199 32.8327 32.686C 32.8201 32.7329 32.8058 32.7795 32.7917 32.8264C 32.7756 32.8792 32.7595 32.9319 32.7457 32.9851C 32.5997 33.551 32.4797 34.1182 32.3977 34.6841L 31.1787 43.052L 39.5467 41.832Z"/>
    </defs>
</svg>
