<svg width="60" height="42" viewBox="0 0 60 42" version="1.1" xmlns="http://www.w3.org/2000/svg" xmlns:xlink="http://www.w3.org/1999/xlink">
    <title>mat</title>
    <desc>Created using Figma</desc>
    <g id="Canvas" transform="translate(-387 -2726)">
        <g id="mat">
            <g id="Shape">
                <use xlink:href="#path0_fill" transform="translate(387 2726.05)"/>
            </g>
        </g>
    </g>
    <defs>
        <path id="path0_fill" fill-rule="evenodd" d="M 59.0482 22.156C 59.4127 22.156 59.745 22.363 59.9043 22.6895C 60.0635 23.0159 60.0217 23.4038 59.7966 23.6895L 45.8935 41.3081C 45.7131 41.5366 45.4373 41.6702 45.1451 41.6702L 40.4547 41.6702C 39.9289 41.6702 39.5029 41.2461 39.5029 40.7224C 39.5029 40.199 39.9289 39.7749 40.4547 39.7749L 44.6825 39.7749L 57.09 24.0518L 25.4862 24.0518L 20.0312 29.606C 19.7538 29.9919 19.4431 30.3616 19.095 30.7078C 17.7286 32.0681 15.912 32.8174 13.9798 32.8174C 12.0474 32.8171 10.2307 32.0679 8.86444 30.7075C 7.73535 29.5833 7.11343 28.0886 7.11343 26.4988C 7.11356 24.9087 7.73547 23.4143 8.86469 22.2903C 8.98199 22.1733 9.10397 22.0632 9.23041 21.9597L 14.1108 17.458C 13.27 17.1992 12.3859 17.064 11.4808 17.064C 9.11276 17.064 6.88657 17.9819 5.21252 19.6489C 0.799469 24.0432 0.799469 31.1929 5.21252 35.5874C 8.05807 38.4209 11.8422 39.9116 15.8654 39.7751L 15.897 39.7747L 36.9005 39.7747C 37.4263 39.7747 37.8523 40.1987 37.8523 40.7224C 37.8523 41.2458 37.4263 41.6702 36.9005 41.6702L 15.9126 41.6702C 15.7396 41.6755 15.5667 41.6782 15.3941 41.6782C 11.0909 41.6782 6.91574 39.9639 3.86639 36.9275C -1.28879 31.7939 -1.28879 23.4414 3.86639 18.3086L 3.86804 18.3071L 19.3896 2.86646C 19.4071 2.84619 19.4248 2.82593 19.4441 2.80664C 19.4678 2.7832 19.4922 2.76025 19.5165 2.73755L 19.5194 2.73486L 19.5687 2.68848L 19.5854 2.67188L 19.6012 2.65771C 21.4003 0.943604 23.7516 0 26.2498 0C 31.5564 0 35.8738 4.29907 35.8738 9.58301C 35.8738 11.7947 35.0992 13.9521 33.6928 15.6587C 33.6618 15.6965 33.6274 15.7302 33.5921 15.762C 33.5553 15.822 33.5119 15.8794 33.4602 15.9319L 27.3476 22.156L 59.0482 22.156ZM 17.4952 19.4084C 17.0331 18.9827 16.5339 18.6101 16.0034 18.2957L 13.1761 20.9036C 13.8913 21.0176 14.5675 21.2842 15.1651 21.6882L 17.4952 19.4084ZM 18.5674 28.385L 18.5658 28.3865C 18.4951 28.4583 18.4387 28.5388 18.3957 28.624C 18.1994 28.8843 17.9839 29.1328 17.7487 29.3669C 16.7419 30.3696 15.4034 30.9216 13.9796 30.9216C 12.5557 30.9216 11.2172 30.3694 10.2105 29.3669C 9.44089 28.6006 9.01703 27.582 9.01703 26.4985C 9.01703 25.415 9.44089 24.3965 10.2106 23.6304C 10.7902 23.0532 11.5607 22.7354 12.3804 22.7354C 13.2002 22.7354 13.9707 23.0535 14.5501 23.6304C 14.5576 23.6377 14.5654 23.6445 14.5732 23.6514L 14.5859 23.6626L 14.5953 23.6714L 14.5997 23.6753C 14.6063 23.6814 14.6129 23.6875 14.6198 23.6931L 14.6451 23.7122L 14.6604 23.7234L 14.673 23.7327C 14.681 23.7388 14.6889 23.7446 14.6971 23.75L 14.7208 23.7646L 14.7263 23.7678L 14.7398 23.7756L 14.7522 23.783C 14.7609 23.7883 14.7697 23.7937 14.7786 23.7983C 14.791 23.8049 14.8037 23.8105 14.8165 23.8162L 14.824 23.8196L 14.8371 23.8257C 14.8458 23.8301 14.8545 23.8342 14.8634 23.8379C 14.8747 23.8425 14.8863 23.8464 14.8979 23.8503L 14.9118 23.855L 14.9285 23.8608L 14.951 23.8687C 14.961 23.8716 14.971 23.874 14.981 23.8762L 14.9883 23.8779L 15.001 23.8809L 15.0146 23.8843C 15.0233 23.8865 15.032 23.8887 15.0408 23.8904C 15.0503 23.8923 15.0598 23.8936 15.0692 23.895L 15.0763 23.896L 15.0913 23.8979L 15.1078 23.9004L 15.1319 23.9036C 15.145 23.9048 15.1582 23.9053 15.1715 23.9058L 15.1847 23.9062L 15.2002 23.9072L 15.2235 23.9082C 15.2539 23.9082 15.2842 23.9065 15.3143 23.9038L 15.3245 23.9023C 15.3511 23.8997 15.3778 23.896 15.4043 23.8909L 15.4195 23.8875L 15.4312 23.8845C 15.4519 23.8799 15.4727 23.8752 15.4932 23.8694C 15.4992 23.8677 15.5051 23.8655 15.511 23.8633L 15.5262 23.8582L 15.5415 23.853C 15.5544 23.8489 15.5673 23.8445 15.5798 23.8396C 15.5886 23.8359 15.5972 23.8318 15.6058 23.8276L 15.6156 23.823L 15.622 23.8203C 15.636 23.8142 15.6501 23.8081 15.6638 23.8008C 15.6724 23.7964 15.6808 23.7913 15.6892 23.7861L 15.7 23.7798L 15.7156 23.7708C 15.7253 23.7654 15.735 23.7598 15.7444 23.7537L 15.767 23.7375L 15.7799 23.728L 15.791 23.72C 15.8012 23.7129 15.8114 23.7056 15.8212 23.6978L 15.8413 23.6802L 15.8536 23.6689L 15.8666 23.6577C 15.8747 23.6509 15.8827 23.6438 15.8904 23.6362L 18.7217 20.866C 19.4036 21.9478 19.7701 23.1997 19.7701 24.5083C 19.7701 25.9126 19.3486 27.2517 18.5674 28.385ZM 19.5961 18.8552C 21.1493 20.6848 21.8298 23.0027 21.6361 25.2605L 32.0993 14.6067C 32.1099 14.5959 32.1211 14.5859 32.1324 14.5759L 32.1457 14.564C 32.1685 14.5271 32.1931 14.4907 32.2216 14.4561C 33.3492 13.0876 33.9703 11.3572 33.9703 9.58301C 33.9703 5.34424 30.507 1.89551 26.2499 1.89551C 24.2451 1.89551 22.3583 2.65308 20.9146 4.02905L 9.54037 15.344C 10.1743 15.2297 10.8225 15.1685 11.4805 15.1685C 14.3575 15.1685 17.0617 16.2839 19.0954 18.3091C 19.241 18.4541 19.3784 18.6045 19.5117 18.7571L 19.5155 18.7605C 19.5451 18.7905 19.5714 18.8223 19.5961 18.8552Z"/>
    </defs>
</svg>
