<svg width="60" height="55" viewBox="0 0 60 55" version="1.1" xmlns="http://www.w3.org/2000/svg" xmlns:xlink="http://www.w3.org/1999/xlink">
    <title>plant</title>
    <desc>Created using Figma</desc>
    <g id="Canvas" transform="translate(-753 -2720)">
        <g id="plant">
            <g id="Shape">
                <use xlink:href="#path0_fill" transform="translate(753 2720.07)"/>
            </g>
            <g id="Shape">
                <use xlink:href="#path1_fill" transform="translate(785.663 2725.44)"/>
            </g>
            <g id="Shape">
                <use xlink:href="#path2_fill" transform="translate(763.893 2730.92)"/>
            </g>
        </g>
    </g>
    <defs>
        <path id="path0_fill" fill-rule="evenodd" d="M 1.36176 0C 8.61957 0 18.8732 0.604736 24.113 5.81885C 28.7319 10.415 28.0157 20.1194 24.113 24.0051C 22.0786 26.0308 18.4592 27.1938 14.8071 27.1938C 11.4465 27.1938 8.05585 26.2097 5.84436 24.0078C 0.604614 18.7908 0 8.58179 0 1.35571C 0 0.607178 0.610107 0 1.36176 0ZM 7.77264 22.0908C 11.1823 25.4856 19.2735 24.9895 22.1876 22.0908C 25.0989 19.1921 25.5972 11.1335 22.1874 7.73877C 17.9581 3.52783 9.36572 2.79834 2.73151 2.71973C 2.81055 9.32495 3.54315 17.8799 7.77264 22.0908Z"/>
        <path id="path1_fill" fill-rule="evenodd" d="M 3.20117 5.81885C 8.4411 0.602051 18.6947 0 25.9526 0C 26.7042 0 27.3143 0.607422 27.3141 1.35571C 27.3141 8.58203 26.7069 18.791 21.4698 24.0081C 19.253 26.2097 15.8651 27.1912 12.5044 27.1912C 8.85229 27.1912 5.2356 26.0281 3.20117 24.0051C -0.701477 20.1194 -1.41766 10.415 3.20117 5.81885ZM 5.12402 22.0881C 8.03528 24.9868 16.1293 25.4829 19.5389 22.0881C 23.7684 17.8799 24.5011 9.32495 24.58 2.71704C 17.9457 2.79565 9.35352 3.52515 5.12402 7.73608C 1.71436 11.1309 2.21277 19.1895 5.12402 22.0881Z"/>
        <path id="path2_fill" d="M 37.8887 6.25079C 37.5674 5.57015 36.6469 5.33705 35.9687 5.6515C 25.5245 10.5404 20.3936 19.0654 18.0623 27.829C 15.1782 9.19538 6.83643 3.51477 3.29872 1.10427C 2.85753 0.80329 2.51438 0.583656 2.32379 0.396561C 1.79272 -0.132187 0.929362 -0.132187 0.398298 0.396561C -0.132766 0.925308 -0.132766 1.7849 0.398298 2.31365C 0.667915 2.57942 1.13362 2.91294 1.76272 3.34128C 5.74979 6.05556 16.3411 13.2709 16.3411 42.0267C 16.3411 42.7751 16.9511 43.3825 17.7028 43.3825C 18.4545 43.3825 19.0646 42.7751 19.0646 42.0295C 19.0646 30.4106 22.1992 15.0932 37.1289 8.10827C 37.1289 8.1056 37.3495 8.00252 37.3495 8.00252C 38.0276 7.68247 38.21 6.92863 37.8887 6.25079Z"/>
    </defs>
</svg>
