<svg width="60" height="53" viewBox="0 0 60 53" version="1.1" xmlns="http://www.w3.org/2000/svg" xmlns:xlink="http://www.w3.org/1999/xlink">
    <title>salad</title>
    <desc>Created using Figma</desc>
    <g id="Canvas" transform="translate(72 -2721)">
        <g id="salad">
            <g id="Shape">
                <use xlink:href="#path0_fill" transform="translate(-72.0005 2721.6)"/>
            </g>
            <g id="Shape">
                <use xlink:href="#path1_fill" transform="translate(-44.707 2764.6)"/>
            </g>
            <g id="Shape">
                <use xlink:href="#path2_fill" transform="translate(-51 2764.6)"/>
            </g>
            <g id="Shape">
                <use xlink:href="#path3_fill" transform="translate(-51 2767.6)"/>
            </g>
            <g id="Shape">
                <use xlink:href="#path4_fill" transform="translate(-35.2433 2726.36)"/>
            </g>
            <g id="Shape">
                <use xlink:href="#path5_fill" transform="translate(-29.5872 2732.02)"/>
            </g>
            <g id="Shape">
                <use xlink:href="#path6_fill" transform="translate(-29.5863 2726.36)"/>
            </g>
            <g id="Shape">
                <use xlink:href="#path7_fill" transform="translate(-23 2738.6)"/>
            </g>
            <g id="Shape">
                <use xlink:href="#path8_fill" transform="translate(-42.5003 2736.6)"/>
            </g>
            <g id="Shape">
                <use xlink:href="#path9_fill" transform="translate(-38.0003 2739.6)"/>
            </g>
            <g id="Shape">
                <use xlink:href="#path10_fill" transform="translate(-42.0003 2741.6)"/>
            </g>
        </g>
    </g>
    <defs>
        <path id="path0_fill" fill-rule="evenodd" d="M 58.5655 24.752C 58.1185 24.2739 57.4885 24 56.8365 24L 56.6425 24C 57.5215 22.4871 57.9995 20.769 57.9995 19C 57.9995 15.011 55.6135 11.4199 51.9915 9.84204C 51.9065 4.4021 47.4605 0 42.0005 0C 36.5415 0 32.0965 4.39893 32.0085 9.83691C 31.8045 9.78906 31.5945 9.76099 31.3805 9.76099C 30.4915 9.76099 29.6545 10.1951 29.1435 10.9209L 28.8945 11.2749C 28.6895 11.5649 28.3045 11.6699 27.9825 11.52L 27.5905 11.3379C 26.7835 10.9619 25.8425 11.0061 25.0715 11.45C 24.3005 11.894 23.7935 12.689 23.7135 13.574L 23.6745 14.0049C 23.6605 14.1589 23.5925 14.374 23.5035 14.604C 23.2745 14.4951 23.1105 14.271 23.0865 14.0039L 23.0475 13.575C 22.9715 12.7351 22.5225 12.0391 21.8795 11.5979L 25.0265 7.13208C 25.6395 6.26099 25.8775 5.19995 25.6935 4.146C 25.5105 3.09009 24.9305 2.1709 24.0605 1.55811C 22.2565 0.288086 19.7565 0.719971 18.4865 2.52393L 12.7265 10.699C 12.5345 10.9719 12.3925 11.2681 12.2755 11.572C 12.1825 11.5759 12.0835 11.5669 11.9815 11.52L 11.5895 11.3379C 10.7825 10.9641 9.8395 11.0071 9.0705 11.4509C 8.3005 11.895 7.7935 12.689 7.71349 13.574L 7.67449 14.0049C 7.64249 14.3601 7.3615 14.6411 7.00649 14.6731L 6.57649 14.7119C 5.6915 14.792 4.89649 15.3 4.45249 16.0691C 4.00749 16.8401 3.96549 17.781 4.33949 18.5901L 4.52049 18.98C 4.67049 19.304 4.5675 19.688 4.2755 19.8931L 3.92249 20.1421C 3.1955 20.655 2.7615 21.4919 2.7615 22.3811C 2.7615 22.9741 2.9695 23.5339 3.31349 23.999L 2.3735 23.999C 1.7215 23.999 1.09149 24.2729 0.644493 24.751C 0.193497 25.2329 -0.039505 25.8889 0.00549316 26.5481C 0.597496 35.2949 6.16149 39.687 14.3345 43.5901C 15.2465 44.0259 15.9995 44.75 16.4565 45.6321C 16.9025 46.4939 16.8315 47.606 16.2625 48.552C 15.8335 49.2639 15.8215 50.1211 16.2305 50.845C 16.6395 51.5691 17.3795 52 18.2105 52L 41.0005 52C 41.8315 52 42.5715 51.5681 42.9805 50.845C 43.3895 50.1211 43.3775 49.2639 42.9385 48.5339C 42.3795 47.605 42.3095 46.4939 42.7545 45.6331C 43.2105 44.751 43.9635 44.0259 44.8765 43.5901C 53.0475 39.687 58.6125 35.2959 59.2055 26.5491C 59.2495 25.8889 59.0155 25.2339 58.5655 24.752ZM 56.0005 19C 56.0005 20.8201 55.3755 22.5789 54.2325 24L 49.0005 24L 49.0005 20C 49.0005 19.447 48.5535 19 48.0005 19C 47.4475 19 47.0005 19.447 47.0005 20L 47.0005 24L 43.4695 24C 43.5505 23.8899 43.6205 23.7739 43.6835 23.6541L 43.6935 23.6389C 43.7815 23.469 43.8445 23.2869 43.8955 23.1021C 43.9085 23.0559 43.9195 23.01 43.9295 22.9619C 43.9705 22.772 43.9995 22.5789 43.9995 22.3809C 43.9995 21.491 43.5655 20.655 42.8395 20.145L 42.6095 19.9819C 42.6522 19.9792 42.694 19.9744 42.7358 19.9695L 42.7363 19.9695L 42.7368 19.9695C 42.773 19.9651 42.809 19.9607 42.8455 19.958C 42.9655 19.948 43.0855 19.936 43.2045 19.9209C 43.4015 19.897 43.5965 19.8669 43.7895 19.832L 43.8745 19.8167C 43.9604 19.8013 44.0465 19.7856 44.1315 19.7668C 44.3395 19.7219 44.5445 19.666 44.7475 19.6079C 44.7814 19.5981 44.8154 19.5891 44.8494 19.5803L 44.8501 19.5801C 44.9072 19.5652 44.9642 19.55 45.0205 19.532C 45.3055 19.4409 45.5845 19.3398 45.8575 19.2249C 45.9024 19.2061 45.9459 19.1851 45.9893 19.1641L 45.9973 19.1602C 46.0246 19.1467 46.0519 19.1335 46.0795 19.1208C 46.2775 19.032 46.4745 18.9399 46.6655 18.8379C 46.7592 18.7881 46.8506 18.7344 46.9418 18.6807L 46.9805 18.658C 47.1335 18.5688 47.2855 18.479 47.4335 18.3818C 47.5435 18.3101 47.6515 18.2358 47.7585 18.1599C 47.8935 18.064 48.0265 17.9639 48.1565 17.8621L 48.1824 17.8416C 48.2806 17.7644 48.3778 17.688 48.4725 17.6069C 48.5833 17.5122 48.6893 17.4136 48.7955 17.3145L 48.8305 17.282L 48.88 17.2361L 48.8805 17.2356C 48.965 17.1572 49.0495 17.0786 49.1305 16.9968C 49.2165 16.9094 49.2977 16.8176 49.3788 16.7258L 49.3823 16.7219L 49.4495 16.646C 49.6485 16.4229 49.8365 16.1919 50.0155 15.9509C 50.039 15.9192 50.0631 15.8879 50.0872 15.8567L 50.0902 15.8528L 50.0914 15.8511C 50.1305 15.8003 50.1696 15.7493 50.2065 15.696C 50.3095 15.5476 50.4045 15.3938 50.4991 15.2407L 50.4999 15.2393L 50.502 15.2358L 50.5155 15.2139L 50.5633 15.1362L 50.5651 15.1333C 50.5991 15.0784 50.6332 15.0234 50.6655 14.967C 50.7665 14.792 50.8595 14.613 50.9495 14.4319L 50.9729 14.3838C 51.0001 14.3281 51.0271 14.2727 51.0535 14.2161C 51.1465 14.0168 51.2335 13.8159 51.3135 13.6099C 51.3256 13.5786 51.3372 13.5464 51.3486 13.5144L 51.3497 13.5112L 51.3625 13.4758C 51.5435 12.989 51.6975 12.489 51.8015 11.9709C 54.3555 13.3521 56.0005 16.0391 56.0005 19ZM 50.0005 10C 50.0005 5.58911 46.4115 2 42.0005 2C 37.5885 2 34.0005 5.58911 34.0005 10C 34.0005 10.4839 34.0495 10.9839 34.1465 11.49C 34.2425 11.543 34.3475 11.572 34.4525 11.5791L 34.461 11.5796L 34.4695 11.5801C 34.5765 11.584 34.6825 11.5659 34.7825 11.52L 35.1725 11.3391C 35.3655 11.25 35.5655 11.188 35.7695 11.146C 35.8103 11.1377 35.8514 11.1345 35.8927 11.1313L 35.898 11.1309L 35.9086 11.1301C 35.9329 11.1282 35.9572 11.1262 35.9815 11.123L 36.063 11.1113C 36.1496 11.0986 36.236 11.0859 36.3235 11.0859C 36.333 11.0859 36.3425 11.0879 36.352 11.0898C 36.3615 11.092 36.371 11.094 36.3805 11.094C 36.5325 11.0969 36.6805 11.124 36.8305 11.1531C 36.8593 11.1584 36.8881 11.1621 36.9169 11.1655L 36.921 11.166C 36.9657 11.1716 37.0103 11.1775 37.0545 11.1899C 37.2745 11.251 37.4895 11.3359 37.6915 11.4529C 37.9935 11.6279 38.2415 11.8679 38.4525 12.135L 39.8795 10.708C 40.2705 10.3169 40.9025 10.3169 41.2935 10.708C 41.6845 11.0991 41.6845 11.731 41.2935 12.1221L 39.1565 14.2581C 39.2665 14.488 39.4905 14.6509 39.7555 14.675L 40.1865 14.7141C 41.0715 14.7939 41.8655 15.301 42.3105 16.071C 42.4115 16.2451 42.4845 16.4299 42.5435 16.6179C 42.5562 16.6567 42.5654 16.696 42.5746 16.7354L 42.5865 16.7849C 42.6205 16.925 42.6445 17.0659 42.6565 17.21L 42.6607 17.2561C 42.6648 17.2991 42.6688 17.3413 42.6695 17.385C 42.6735 17.5681 42.6625 17.751 42.6295 17.9319C 42.6285 17.9385 42.628 17.9451 42.6275 17.9514L 42.6255 17.9709L 42.664 17.969C 42.677 17.9685 42.6899 17.968 42.7025 17.967C 42.8154 17.9565 42.9267 17.9409 43.0385 17.925L 43.0895 17.918L 43.1972 17.9031C 43.2876 17.8909 43.378 17.8784 43.4675 17.8621C 43.5619 17.8442 43.6546 17.822 43.7472 17.7996L 43.8255 17.781L 43.8966 17.7646C 44.0021 17.7405 44.1076 17.7161 44.2105 17.686C 44.2961 17.6614 44.3792 17.6331 44.4628 17.6045L 44.4713 17.6016L 44.5375 17.5791L 44.5493 17.5752L 44.5597 17.5718L 44.58 17.5649C 44.6958 17.5264 44.8114 17.4875 44.9245 17.4431C 45.0014 17.4133 45.0765 17.3796 45.1516 17.3457L 45.2225 17.314L 45.2312 17.3101L 45.2371 17.3074C 45.3613 17.2527 45.4862 17.1975 45.6075 17.136C 45.6706 17.1038 45.7326 17.0691 45.7944 17.0344L 45.8106 17.0254L 45.8735 16.99L 45.9078 16.9709L 45.9112 16.969C 46.0276 16.9041 46.1437 16.8391 46.2565 16.7681C 46.3205 16.728 46.3819 16.6855 46.4434 16.6428L 46.4895 16.6111C 46.6175 16.5229 46.7445 16.4351 46.8675 16.3411C 46.9213 16.3 46.9732 16.2566 47.0252 16.2129L 47.0635 16.1809C 47.1905 16.0759 47.3165 15.9709 47.4365 15.8589C 47.4773 15.8206 47.5163 15.7815 47.5554 15.7422L 47.5575 15.7402L 47.5637 15.7339L 47.5935 15.7041C 47.7195 15.5801 47.8435 15.4551 47.9605 15.323C 47.9867 15.2935 48.0121 15.2632 48.0374 15.2329L 48.0775 15.1851C 48.2015 15.04 48.3225 14.8921 48.4355 14.738L 48.4782 14.6775L 48.485 14.6675L 48.5125 14.6279C 48.6335 14.459 48.7495 14.2849 48.8565 14.106L 48.8785 14.0674L 48.8975 14.0339C 49.0125 13.8369 49.1205 13.637 49.2185 13.4299L 49.2305 13.4031C 49.6545 12.502 49.9165 11.509 49.9755 10.458C 49.9755 10.4541 49.9785 10.448 49.9785 10.448L 49.9853 10.343C 49.9929 10.2292 50.0005 10.1155 50.0005 10ZM 25.6665 14.1858L 25.7055 13.7549C 25.7265 13.5129 25.8605 13.304 26.0715 13.1829C 26.2815 13.0618 26.5295 13.0488 26.7495 13.1528L 27.1435 13.3359C 28.3425 13.8899 29.7685 13.5068 30.5295 12.428L 30.7785 12.074C 31.0595 11.6748 31.7055 11.678 31.9845 12.073L 32.2335 12.427C 32.7435 13.1499 33.5515 13.5508 34.3905 13.5759L 34.4195 13.5759C 34.5405 13.5779 34.6625 13.5759 34.7835 13.5618C 34.8229 13.5576 34.8619 13.5503 34.9011 13.5427L 34.9024 13.5425L 34.9535 13.533L 35.0187 13.5215C 35.0786 13.5112 35.138 13.501 35.1975 13.4849C 35.3415 13.4458 35.4835 13.397 35.6215 13.3328L 36.0125 13.1509C 36.2335 13.0488 36.4815 13.0598 36.6905 13.1809C 36.9005 13.303 37.0345 13.511 37.0555 13.7539L 37.0945 14.1829C 37.2145 15.501 38.2575 16.5449 39.5745 16.6628L 40.0045 16.7019C 40.2475 16.7229 40.4565 16.8569 40.5775 17.0679C 40.6995 17.2778 40.7105 17.5259 40.6085 17.7449L 40.4245 18.1409C 40.42 18.1511 40.417 18.1606 40.4141 18.1702L 40.4136 18.1719C 40.4115 18.1787 40.4093 18.1858 40.4065 18.1929C 40.0505 19.0088 40.1245 19.9158 40.5465 20.6499L 40.5645 20.6809C 40.6185 20.772 40.6755 20.8589 40.7405 20.9438C 40.7648 20.9768 40.7911 21.0073 40.8176 21.0381L 40.8218 21.043L 40.8226 21.0439L 40.8525 21.0789L 40.8877 21.1196L 40.8895 21.1218L 40.8904 21.1228C 40.9264 21.1646 40.9625 21.2063 41.0025 21.2449C 41.1045 21.3459 41.2135 21.4409 41.3335 21.5249L 41.6885 21.7759C 41.8865 21.918 42.0005 22.1379 42.0005 22.3809C 42.0005 22.6238 41.8865 22.8428 41.6885 22.9829L 41.3325 23.2329L 41.3289 23.2361L 41.3281 23.2368L 41.3235 23.241C 41.1935 23.334 41.0745 23.439 40.9635 23.553C 40.9343 23.5828 40.9078 23.6152 40.8813 23.6477L 40.8725 23.6584L 40.8405 23.6968C 40.7805 23.7678 40.7215 23.8398 40.6695 23.917C 40.6605 23.9299 40.6503 23.9421 40.64 23.9543L 40.6376 23.9573L 40.6363 23.9587L 40.6356 23.9595C 40.6246 23.9729 40.6137 23.9861 40.6045 24.001L 27.4695 24.001C 27.5505 23.8909 27.6205 23.7739 27.6845 23.6538L 27.6935 23.6399C 27.7815 23.469 27.8455 23.2869 27.8965 23.1008C 27.9095 23.0549 27.9195 23.0098 27.9295 22.9639C 27.9715 22.7749 27.9995 22.5818 28.0005 22.3848L 28.0005 22.3828C 28.0005 22.2913 27.9861 22.2026 27.9717 22.1138C 27.966 22.0786 27.9603 22.0432 27.9555 22.0078C 27.9506 21.9734 27.9479 21.9385 27.9451 21.9036C 27.9405 21.8452 27.9359 21.7871 27.9215 21.731C 27.8485 21.4329 27.7095 21.1599 27.5435 20.9038C 27.3555 20.615 27.1285 20.3499 26.8395 20.146L 26.4855 19.896C 26.1945 19.6909 26.0925 19.3079 26.2415 18.9858L 26.4245 18.5928C 26.5135 18.4009 26.5745 18.2 26.6165 17.9958C 26.6245 17.958 26.6276 17.9204 26.6307 17.8826C 26.6326 17.8594 26.6344 17.8362 26.6375 17.813C 26.6575 17.6689 26.6725 17.5259 26.6695 17.3818C 26.6681 17.3286 26.6616 17.2759 26.6551 17.2229L 26.6475 17.158C 26.6335 17.0288 26.6165 16.9009 26.5845 16.7749C 26.5653 16.6997 26.5401 16.6279 26.5145 16.5549L 26.5075 16.5349C 26.4972 16.5066 26.4891 16.4778 26.481 16.449C 26.4703 16.4104 26.4595 16.3721 26.4435 16.335C 26.4342 16.3135 26.4209 16.2952 26.4077 16.2769C 26.3969 16.2617 26.3861 16.2466 26.3775 16.23C 26.3664 16.2073 26.3577 16.1838 26.349 16.1604C 26.338 16.1311 26.3271 16.1018 26.3115 16.074C 26.2764 16.0137 26.2329 15.9604 26.1893 15.907L 26.1875 15.9048C 26.1659 15.8782 26.1442 15.8516 26.1235 15.824C 26.1072 15.802 26.0915 15.7798 26.0758 15.7576C 26.0415 15.709 26.0073 15.6606 25.9675 15.616C 25.8465 15.481 25.7085 15.366 25.5645 15.2588C 25.5458 15.2449 25.5292 15.2285 25.5127 15.2122L 25.5106 15.21L 25.5086 15.208L 25.5074 15.2068C 25.4877 15.1875 25.4679 15.168 25.4445 15.1528C 25.5485 14.8489 25.6365 14.5149 25.6665 14.1858ZM 22.9095 3.19409C 22.0085 2.55908 20.7575 2.77515 20.1225 3.677L 14.3615 11.853C 14.2035 12.0771 14.0985 12.3281 14.0435 12.5901C 14.0075 12.7629 14.0025 12.936 14.0115 13.106L 14.0136 13.1384C 14.0157 13.1707 14.0178 13.2029 14.0215 13.2351C 14.0415 13.405 14.0755 13.572 14.1365 13.73C 14.1385 13.7349 14.141 13.7395 14.1435 13.7439L 14.1445 13.7456C 14.1466 13.7498 14.1488 13.7537 14.1505 13.7581C 14.2115 13.907 14.2935 14.0461 14.3885 14.177L 14.3922 14.1819C 14.417 14.2153 14.4418 14.2485 14.4685 14.28C 14.5775 14.4099 14.6975 14.533 14.8405 14.634L 14.843 14.636L 14.8455 14.6379C 15.2795 14.9451 15.8115 15.0591 16.3385 14.9709C 16.8665 14.8801 17.3255 14.5901 17.6315 14.155L 19.4905 11.5181C 19.4905 11.5171 19.4915 11.5171 19.4915 11.5171L 23.3925 5.98096C 23.6985 5.5481 23.8155 5.01709 23.7245 4.48804C 23.6335 3.95996 23.3435 3.5 22.9095 3.19409ZM 5.4275 23.2322L 5.0735 22.9832C 4.8745 22.843 4.7605 22.624 4.7605 22.3801C 4.7605 22.136 4.8745 21.917 5.0735 21.7761L 5.4255 21.5281C 6.5085 20.7671 6.8905 19.342 6.3345 18.1382L 6.1535 17.748C 6.0505 17.5271 6.0625 17.2791 6.18349 17.0681C 6.3055 16.8582 6.5135 16.7241 6.7565 16.7031L 7.1855 16.6641C 8.5035 16.5461 9.5465 15.5032 9.6665 14.1851L 9.7055 13.7542C 9.7265 13.5122 9.8605 13.3042 10.0705 13.1821C 10.2795 13.061 10.5285 13.05 10.7485 13.1521L 11.1425 13.3352C 11.4285 13.467 11.7315 13.5442 12.0395 13.5681C 12.0411 13.5796 12.0446 13.5911 12.048 13.6025C 12.0508 13.6121 12.0537 13.6216 12.0555 13.6311C 12.057 13.6401 12.0572 13.6492 12.0575 13.658C 12.0577 13.6667 12.058 13.6755 12.0595 13.6841C 12.072 13.7554 12.0931 13.823 12.1142 13.8909C 12.1269 13.9316 12.1396 13.9724 12.1505 14.0142C 12.1602 14.051 12.1693 14.0881 12.1784 14.1252C 12.201 14.2178 12.2237 14.3103 12.2565 14.4001C 12.3005 14.5186 12.358 14.6301 12.4157 14.7417L 12.4585 14.8252C 12.4757 14.8589 12.4914 14.8928 12.5072 14.9268C 12.5354 14.9878 12.5635 15.0483 12.5995 15.1062C 12.6975 15.2651 12.8175 15.4092 12.9375 15.553C 12.9593 15.5791 12.979 15.6062 12.9987 15.6333C 13.0252 15.6697 13.0515 15.7058 13.0825 15.739C 13.2665 15.9341 13.4695 16.114 13.6935 16.271C 13.8905 16.4102 14.1005 16.5242 14.3145 16.624C 14.3678 16.6484 14.4217 16.6689 14.4763 16.6899L 14.4848 16.6931L 14.5215 16.707C 14.6745 16.7681 14.8295 16.8201 14.9885 16.8611C 15.0685 16.8821 15.1475 16.9021 15.2295 16.917C 15.3985 16.9502 15.5695 16.969 15.7425 16.98C 15.7683 16.9817 15.7937 16.9841 15.8191 16.9868C 15.8577 16.9907 15.8963 16.9946 15.9355 16.9951C 15.944 16.9951 15.9522 16.9961 15.9605 16.9971C 15.9688 16.998 15.977 16.999 15.9855 16.999C 16.2165 16.999 16.4485 16.979 16.6805 16.9392C 17.7355 16.7551 18.6545 16.175 19.2675 15.3052L 20.7385 13.217C 20.9055 13.3281 21.0345 13.5081 21.0565 13.7542L 21.0955 14.1831C 21.2155 15.501 22.2585 16.5442 23.5755 16.6631L 24.0055 16.7021C 24.0995 16.7102 24.1815 16.749 24.2615 16.7881L 24.2794 16.7971C 24.3123 16.8137 24.3448 16.8303 24.3745 16.853C 24.4285 16.8931 24.4725 16.9451 24.5135 16.999L 24.5347 17.0259C 24.5543 17.0503 24.5738 17.0745 24.5885 17.103C 24.6365 17.197 24.6705 17.2961 24.6755 17.3982L 24.6745 17.4121C 24.6785 17.5242 24.6575 17.6382 24.6085 17.7441L 24.4255 18.1372C 24.2165 18.5881 24.1405 19.0701 24.1835 19.5371L 24.1847 19.543C 24.1856 19.5471 24.1865 19.5513 24.1865 19.5562C 24.2015 19.7051 24.2265 19.8521 24.2655 19.9971C 24.4265 20.5991 24.7925 21.145 25.3325 21.5251L 25.5755 21.696L 25.6865 21.7742C 25.8865 21.9192 26.0005 22.1382 26.0005 22.3811C 26.0005 22.5032 25.9725 22.6182 25.9185 22.7212C 25.91 22.738 25.8961 22.7512 25.882 22.7644C 25.8711 22.7747 25.8602 22.7849 25.8515 22.7971L 25.8415 22.8113C 25.797 22.8745 25.7526 22.9375 25.6865 22.9841L 25.6735 22.9932L 25.3315 23.2332C 25.1945 23.3301 25.0685 23.4421 24.9525 23.562C 24.9307 23.5845 24.9115 23.6086 24.8924 23.6328L 24.8905 23.6353C 24.8787 23.6499 24.8669 23.6648 24.8545 23.6792C 24.7785 23.7671 24.7055 23.8572 24.6405 23.9541C 24.6353 23.9617 24.6293 23.9688 24.6233 23.9758C 24.6165 23.9836 24.6098 23.9915 24.6045 24L 6.1565 24C 5.9655 23.7002 5.7185 23.437 5.4275 23.2322ZM 40.9775 44.7141C 41.6335 43.447 42.7115 42.407 44.0145 41.7849C 51.7685 38.082 56.6805 34.219 57.2095 26.4141C 57.2205 26.2639 57.1485 26.1641 57.1055 26.1169C 57.0545 26.063 56.9675 26 56.8375 26L 54.6945 26L 41.3055 26L 41.2425 26L 25.2425 26L 5.5205 26L 2.3745 26C 2.2435 26 2.1565 26.063 2.1065 26.1169C 2.0635 26.1641 1.9915 26.2649 2.0015 26.4141C 2.5295 34.219 7.4415 38.082 15.1965 41.7839C 16.4985 42.405 17.5775 43.4451 18.2325 44.7119C 18.9955 46.187 18.9005 48.0459 17.9855 49.5649C 17.9065 49.697 17.9355 49.7971 17.9715 49.8601C 18.0075 49.9241 18.0785 50 18.2105 50L 40.9985 50C 41.1315 50 41.2015 49.9231 41.2375 49.8601C 41.2745 49.7971 41.3025 49.697 41.2345 49.583C 40.3095 48.0471 40.2145 46.188 40.9775 44.7141Z"/>
        <path id="path1_fill" d="M 9.707 0L 1 0C 0.448 0 0 0.447 0 1C 0 1.553 0.448 2 1 2L 9.707 2C 10.259 2 10.707 1.553 10.707 1C 10.707 0.447 10.259 0 9.707 0Z"/>
        <path id="path2_fill" d="M 1 2L 4.386 2C 4.938 2 5.386 1.553 5.386 1C 5.386 0.447 4.938 0 4.386 0L 1 0C 0.448 0 0 0.447 0 1C 0 1.553 0.447 2 1 2Z"/>
        <path id="path3_fill" d="M 16 0L 1 0C 0.448 0 0 0.447 0 1C 0 1.553 0.448 2 1 2L 16 2C 16.552 2 17 1.553 17 1C 17 0.447 16.552 0 16 0Z"/>
        <path id="path4_fill" d="M 3.12225 4.53525C 3.31725 4.73025 3.57325 4.82825 3.82925 4.82825C 4.08525 4.82825 4.34125 4.73025 4.53625 4.53525C 4.92725 4.14425 4.92725 3.51225 4.53625 3.12125L 1.70725 0.29325C 1.31625 -0.09775 0.68425 -0.09775 0.29325 0.29325C -0.09775 0.68425 -0.09775 1.31625 0.29325 1.70725L 3.12225 4.53525Z"/>
        <path id="path5_fill" d="M 3.12225 4.53525C 3.31725 4.73025 3.57325 4.82825 3.82925 4.82825C 4.08525 4.82825 4.34125 4.73025 4.53625 4.53525C 4.92725 4.14425 4.92625 3.51225 4.53625 3.12125L 1.70725 0.29325C 1.31625 -0.09775 0.68425 -0.09775 0.29325 0.29325C -0.09775 0.68425 -0.09775 1.31625 0.29325 1.70725L 3.12225 4.53525Z"/>
        <path id="path6_fill" d="M 1.00025 4.82825C 1.25625 4.82825 1.51225 4.73025 1.70725 4.53525L 4.53625 1.70725C 4.92625 1.31625 4.92725 0.68425 4.53625 0.29325C 4.14525 -0.09775 3.51325 -0.09775 3.12225 0.29325L 0.29325 3.12125C -0.09775 3.51225 -0.09775 4.14425 0.29325 4.53525C 0.48825 4.73025 0.74425 4.82825 1.00025 4.82825Z"/>
        <path id="path7_fill" d="M 0 1C 0 1.553 0.447 2 1 2L 5 2C 5.553 2 6 1.553 6 1C 6 0.447 5.553 0 5 0L 1 0C 0.447 0 0 0.447 0 1Z"/>
        <path id="path8_fill" d="M 1.00025 3.50025C 1.25625 3.50025 1.51225 3.40225 1.70725 3.20725L 3.20725 1.70725C 3.59825 1.31625 3.59825 0.68425 3.20725 0.29325C 2.81625 -0.09775 2.18425 -0.09775 1.79325 0.29325L 0.29325 1.79325C -0.09775 2.18425 -0.09775 2.81625 0.29325 3.20725C 0.48825 3.40225 0.74425 3.50025 1.00025 3.50025Z"/>
        <path id="path9_fill" d="M 1.29325 2.70725C 1.48825 2.90225 1.74425 3.00025 2.00025 3.00025C 2.25625 3.00025 2.51225 2.90225 2.70725 2.70725C 3.09825 2.31625 3.09825 1.68425 2.70725 1.29325L 1.70725 0.29325C 1.31625 -0.09775 0.68425 -0.09775 0.29325 0.29325C -0.09775 0.68425 -0.09775 1.31625 0.29325 1.70725L 1.29325 2.70725Z"/>
        <path id="path10_fill" d="M 1.29325 0.29325L 0.29325 1.29325C -0.09775 1.68425 -0.09775 2.31625 0.29325 2.70725C 0.48825 2.90225 0.74425 3.00025 1.00025 3.00025C 1.25625 3.00025 1.51225 2.90225 1.70725 2.70725L 2.70725 1.70725C 3.09825 1.31625 3.09825 0.68425 2.70725 0.29325C 2.31625 -0.09775 1.68325 -0.09775 1.29325 0.29325Z"/>
    </defs>
</svg>
