<svg width="64" height="61" viewBox="0 0 64 61" version="1.1" xmlns="http://www.w3.org/2000/svg" xmlns:xlink="http://www.w3.org/1999/xlink">
    <title>Shape</title>
    <desc>Created using Figma</desc>
    <g id="Canvas" transform="translate(-303 -2447)">
        <g id="Shape">
            <use xlink:href="#path0_fill" transform="translate(303.582 2447)"/>
        </g>
    </g>
    <defs>
        <path id="path0_fill" fill-rule="evenodd" d="M 59.6842 38.731C 56.9307 38.1624 55.0532 36.3933 53.5513 34.6873C 51.048 31.9072 48.9828 28.6218 47.1054 24.6414C 45.8537 21.9243 43.7885 19.9658 41.035 18.8916C 38.7195 17.9438 36.3413 17.3752 33.9633 17.1226C 37.1549 15.9851 39.5956 12.6997 39.6582 9.09839C 39.6582 3.91724 36.091 0.0632324 31.3974 0C 26.7664 0 23.0741 3.98047 23.0741 8.84546C 23.0741 12.5732 25.5773 15.8589 28.8316 17.0593C 26.8915 17.2488 25.0141 17.5647 23.0741 18.1965C 19.3818 19.334 16.9411 21.4822 15.4391 24.894C 14.9385 26.0312 14.2501 27.2317 13.2488 28.748C 10.8081 32.4126 7.74161 36.3933 2.48477 37.5938C 1.29572 37.8464 0.419586 38.731 0.106659 39.8682C -0.206238 41.1318 0.16925 42.5852 1.23315 43.6592C 2.42218 44.9229 3.98672 45.4282 5.67642 45.1755C 9.74423 44.6069 13.2488 42.9011 16.1275 39.9946C 17.0037 39.1101 17.8172 38.1624 18.6308 37.2146C 18.8185 36.9934 19.0219 36.7563 19.2253 36.5195C 19.4287 36.2827 19.6321 36.0457 19.8199 35.8245L 20.5708 35.0032L 20.696 36.1404C 20.696 36.3071 20.7134 36.4563 20.7299 36.5972C 20.7446 36.7234 20.7586 36.8425 20.7586 36.9619L 20.7744 37.1204C 20.8312 37.6902 20.8837 38.2156 20.8837 38.7942C 20.9463 42.522 20.2579 45.3652 18.6308 47.8293C 18.1927 48.4612 17.8172 48.6506 17.1288 48.6506L 16.9411 48.6506C 14.563 48.5244 12.2475 48.4612 10.37 48.6506C 7.86679 48.9033 6.30225 49.9775 5.55127 51.936C 5.11319 53.1997 4.86285 55.1584 5.55127 56.9275C 6.1145 58.2544 7.11581 59.2021 8.49258 59.7708C 10.4952 60.5291 12.4352 60.9712 14.1249 60.9712L 14.3127 60.9712C 18.1927 60.9082 22.1353 60.6553 25.9528 60.3394C 26.6951 60.2742 27.4373 60.2258 28.1882 60.177C 28.8933 60.1311 29.6061 60.0847 30.3335 60.0234C 30.6774 60.0234 31.0508 59.9639 31.4131 59.906L 31.4444 59.9011L 31.4546 59.8994L 31.4849 59.8948C 31.6255 59.8726 31.764 59.8508 31.8981 59.834C 32.1481 59.813 32.3981 59.7849 32.6481 59.7568C 33.149 59.7007 33.65 59.6445 34.151 59.6445C 34.4639 59.6445 34.8394 59.6445 35.1523 59.7075C 35.9659 59.834 36.7794 59.9604 37.593 60.0234L 38.3529 60.1252C 41.4337 60.5396 44.6091 60.9663 47.7312 60.9082C 49.7964 60.845 51.9867 60.6553 53.9893 59.6445C 56.1797 58.5071 57.181 56.6748 56.9307 54.2739C 56.6803 51.5571 55.3036 49.8511 52.988 49.4089C 51.1732 49.0298 49.3583 49.0298 47.3557 49.0298C 46.2918 49.0298 45.6034 48.6506 44.9776 47.8926C 42.5995 44.7966 42.1614 41.1951 42.224 36.7722L 42.224 35.2559L 43.726 37.2778C 43.8234 37.4089 43.9167 37.5359 44.0068 37.6587L 44.0096 37.6626C 44.2656 38.011 44.4964 38.325 44.7273 38.6045C 47.9815 42.6482 51.2983 45.0493 55.1784 46.1233C 56.9307 46.6289 58.37 46.6289 59.6842 46.0601C 61.3739 45.3652 62.5004 43.5959 62.4378 41.9534C 62.5004 40.3105 61.3739 39.0469 59.6842 38.731ZM 25.4522 8.78247C 25.4522 5.30737 28.0806 2.46411 31.3348 2.46411L 31.46 2.46411C 34.7142 2.52734 37.2801 5.30737 37.2175 8.84546C 37.2175 12.2573 34.5891 15.1006 31.3348 15.1006C 28.0806 15.0374 25.4522 12.1943 25.4522 8.78247ZM 24.3257 58.3176L 24.7638 58.2544L 24.8889 57.1802L 24.576 57.054C 24.3314 56.9058 24.0485 56.7961 23.7872 56.6951L 23.7748 56.6902L 23.7575 56.6833C 23.6949 56.6592 23.6337 56.6355 23.5747 56.6116C 22.8238 56.2957 22.0728 55.9797 21.2592 55.7271C 18.8185 55.032 17.6921 53.7683 17.5043 51.6201L 17.4417 51.2412L 17.0663 51.178C 16.1275 50.9253 14.8133 50.7988 13.3739 50.7988C 12.0597 50.7988 10.9958 50.9253 10.2449 51.1147C 8.55518 51.5571 7.67902 52.4417 7.55386 53.8948C 7.42871 55.8535 8.0545 57.054 9.68164 57.749C 10.37 58.0649 11.1836 58.3809 11.9972 58.3809C 15.1262 58.5071 18.3179 58.5071 21.5721 58.5071C 22.1956 58.5071 22.819 58.4443 23.4424 58.3816L 23.4496 58.3809C 23.606 58.3809 23.7468 58.365 23.8876 58.3491L 23.8934 58.3484C 24.0323 58.333 24.1714 58.3176 24.3257 58.3176ZM 50.8603 51.4939L 51.2983 51.4939C 53.4887 51.4939 54.6152 52.5049 54.8655 54.5898C 55.0532 56.043 54.49 57.1172 53.301 57.4963C 51.8616 58.0017 50.3596 58.3176 48.9828 58.5703C 48.6699 58.6335 48.4196 58.6335 48.1067 58.6335L 47.4183 58.6335L 46.7925 58.6335C 37.3427 58.1282 29.8329 56.6116 23.0741 53.8948C 22.8238 53.7686 22.5734 53.7053 22.2605 53.6421L 22.2584 53.6414C 21.821 53.5151 21.3838 53.3889 21.0089 53.1367C 20.9463 53.1367 19.8199 52.5049 19.8199 51.6833C 19.8199 51.0515 20.4457 50.4197 20.9463 50.167C 22.1354 49.5352 23.387 49.4719 25.2644 49.9143C 26.078 50.1038 26.9541 50.3567 27.7677 50.6094C 28.769 50.9253 29.8329 51.2412 30.8342 51.4307C 32.649 51.8098 34.5891 51.9993 36.9046 51.9993C 38.782 51.9993 40.7847 51.873 42.6621 51.7466L 42.9124 51.7466L 43.8447 51.7063C 46.4126 51.5947 48.7363 51.4939 50.8603 51.4939ZM 59.9346 42.8379C 60.0598 42.7117 60.1223 42.5852 60.1849 42.459L 60.8107 41.8901L 60.3101 41.5742C 60.2789 41.5427 60.2321 41.5115 60.1853 41.48C 60.1382 41.4482 60.0911 41.4165 60.0598 41.3848C 59.9725 41.332 59.8901 41.2742 59.8085 41.217C 59.5975 41.0691 59.3918 40.9248 59.121 40.8794C 56.43 40.3738 54.4274 38.6047 52.988 37.1516C 50.0467 34.1819 47.606 30.5173 45.4783 26.0312C 44.2266 23.3145 42.224 21.5454 39.4704 20.5977C 35.2149 19.1445 30.6465 18.8918 25.8277 19.9026C 21.5096 20.7871 18.756 22.9985 17.3792 26.6001C 17.3375 26.8108 17.2401 26.9651 17.1428 27.1194C 17.0941 27.1968 17.0454 27.2739 17.0037 27.3582L 16.7683 27.7388C 13.7003 32.7007 10.2621 38.262 3.61124 39.6787C 3.048 39.8052 2.73511 40.1211 2.60992 40.5635C 2.48477 41.0688 2.67252 41.5742 3.17316 42.0166C 3.86157 42.7117 4.92545 42.8379 6.05191 42.6484C 8.43002 42.2693 10.5578 41.3848 12.4978 40.0579C 15.4391 38.0361 17.8172 35.1929 19.945 31.1492C 20.2579 30.5806 20.5708 30.3279 21.0715 30.3279L 21.1966 30.3279C 21.6973 30.3909 22.0102 30.7068 22.1979 31.3386C 23.1992 34.6243 23.5747 37.5938 23.387 40.3105C 23.2618 41.7007 23.0115 43.1538 22.7612 44.6072C 22.7071 45.2083 22.6061 45.7622 22.4988 46.3506L 22.4483 46.6289L 22.3231 47.324L 22.9489 47.2607C 24.6386 47.1343 26.3283 47.6399 28.0806 48.2085C 28.257 48.2595 28.4436 48.3206 28.6363 48.3838C 28.922 48.4773 29.221 48.5754 29.52 48.6509C 31.7103 49.2827 34.2136 49.5984 37.0298 49.5984C 38.9698 49.5984 40.9098 49.4722 42.3492 49.3457L 43.1002 49.2827L 42.7873 48.5876C 42.6934 48.3979 42.6152 48.2244 42.5369 48.0505C 42.4587 47.8767 42.3805 47.7031 42.2866 47.5134C 41.9111 46.7554 41.5982 46.0603 41.3479 45.3652C 40.0337 41.448 39.7833 37.1516 40.6595 31.9075C 40.7846 30.9597 40.9724 30.5173 41.6608 30.3909C 42.3492 30.2646 42.6621 30.7068 43.1628 31.4651L 43.8511 32.6023C 44.9776 34.4346 46.1667 36.3301 47.5435 38.0361C 50.0467 41.1321 52.9254 43.0906 56.0545 43.8489C 56.8055 44.0383 57.7442 44.0383 58.9958 43.7856C 59.3701 43.7317 59.6074 43.3547 59.8246 43.0098C 59.8617 42.9509 59.8981 42.8931 59.9346 42.8379Z"/>
    </defs>
</svg>
