<svg width="60" height="60" viewBox="0 0 60 60" version="1.1" xmlns="http://www.w3.org/2000/svg" xmlns:xlink="http://www.w3.org/1999/xlink">
    <title>004-books</title>
    <desc>Created using Figma</desc>
    <g id="Canvas" transform="translate(-270 681)">
        <g id="004-books">
            <g id="Shape">
                <use xlink:href="#path0_fill" transform="translate(310 -661)" fill="#323232"/>
            </g>
            <g id="Shape">
                <use xlink:href="#path1_fill" transform="translate(310 -657)" fill="#323232"/>
            </g>
            <g id="Shape">
                <use xlink:href="#path1_fill" transform="translate(310 -665)" fill="#323232"/>
            </g>
            <g id="Shape">
                <use xlink:href="#path0_fill" transform="translate(310 -633)" fill="#323232"/>
            </g>
            <g id="Shape">
                <use xlink:href="#path2_fill" transform="translate(284 -665)" fill="#323232"/>
            </g>
            <g id="Shape">
                <use xlink:href="#path3_fill" transform="translate(284 -633)" fill="#323232"/>
            </g>
            <g id="Shape">
                <use xlink:href="#path3_fill" transform="translate(284 -629)" fill="#323232"/>
            </g>
            <g id="Shape">
                <use xlink:href="#path1_fill" transform="translate(310 -629)" fill="#323232"/>
            </g>
            <g id="Shape">
                <use xlink:href="#path4_fill" transform="translate(320 -629)" fill="#323232"/>
            </g>
            <g id="Shape">
                <use xlink:href="#path5_fill" transform="translate(298 -665)" fill="#323232"/>
            </g>
            <g id="Shape">
                <use xlink:href="#path6_fill" transform="translate(320 -633)" fill="#323232"/>
            </g>
            <g id="Shape">
                <use xlink:href="#path7_fill" transform="translate(298 -629)" fill="#323232"/>
            </g>
            <g id="Shape">
                <use xlink:href="#path8_fill" transform="translate(320 -657)" fill="#323232"/>
            </g>
            <g id="Shape">
                <use xlink:href="#path9_fill" transform="translate(324 -657)" fill="#323232"/>
            </g>
            <g id="Shape">
                <use xlink:href="#path10_fill" transform="translate(270 -681)" fill="#323232"/>
            </g>
            <g id="Shape">
                <use xlink:href="#path11_fill" transform="translate(274 -633)" fill="#323232"/>
            </g>
            <g id="Shape">
                <use xlink:href="#path11_fill" transform="translate(274 -629)" fill="#323232"/>
            </g>
            <g id="Shape">
                <use xlink:href="#path7_fill" transform="translate(298 -633)" fill="#323232"/>
            </g>
            <g id="Shape">
                <use xlink:href="#path11_fill" transform="translate(274 -657)" fill="#323232"/>
            </g>
            <g id="Shape">
                <use xlink:href="#path12_fill" transform="translate(274 -653)" fill="#323232"/>
            </g>
        </g>
    </g>
    <defs>
        <path id="path0_fill" d="M 3 0L 0.999961 0C 0.448008 0 0 0.448008 0 0.999961C 0 1.55191 0.448008 1.99992 0.999961 1.99992L 3 1.99992C 3.55195 1.99992 3.99996 1.55191 3.99996 0.999961C 3.99996 0.448008 3.55207 0 3 0Z"/>
        <path id="path1_fill" d="M 3 0L 0.999961 0C 0.448008 0 0 0.448008 0 0.999961C 0 1.55191 0.448008 1.99992 0.999961 1.99992L 3 1.99992C 3.55195 1.99992 3.99996 1.55191 3.99996 0.999961C 4.00008 0.448008 3.55207 0 3 0Z"/>
        <path id="path2_fill" fill-rule="evenodd" d="M 0.999969 0L 6.99997 0C 7.55191 0 7.99991 0.447998 7.99991 1.00006L 7.99991 15C 7.99991 15.5519 7.55191 15.9999 6.99997 15.9999L 0.999969 15.9999C 0.447998 15.9999 0 15.5519 0 15L 0 0.999939C 0 0.447998 0.447998 0 0.999969 0ZM 2.00003 14.0001L 6 14.0001L 6 2.00006L 2.00003 2.00006L 2.00003 14.0001Z"/>
        <path id="path3_fill" d="M 6.99996 0L 0.999961 0C 0.448008 0 0 0.448008 0 0.999961C 0 1.55191 0.448008 1.99992 0.999961 1.99992L 6.99996 1.99992C 7.55191 1.99992 7.99992 1.55191 7.99992 0.999961C 7.99992 0.448008 7.55191 0 6.99996 0Z"/>
        <path id="path4_fill" d="M 4.99992 0L 0.999961 0C 0.448008 0 0 0.448008 0 0.999961C 0 1.55191 0.448008 1.99992 0.999961 1.99992L 4.99992 1.99992C 5.55188 1.99992 5.99988 1.55191 5.99988 0.999961C 6 0.448008 5.55199 0 4.99992 0Z"/>
        <path id="path5_fill" fill-rule="evenodd" d="M 4.99991 0C 5.55188 0 5.99988 0.447998 5.99988 0.999939L 5.99988 15C 5.99988 15.5519 5.55188 15.9999 4.99991 15.9999L 0.999969 15.9999C 0.447998 15.9999 0 15.5519 0 15L 0 0.999939C 0 0.447998 0.447998 0 0.999969 0L 4.99991 0ZM 1.99991 13.9999L 3.99994 13.9999L 3.99994 1.99994L 1.99991 1.99994L 1.99991 13.9999Z"/>
        <path id="path6_fill" d="M 4.99992 0L 0.999961 0C 0.448008 0 0 0.448008 0 0.999961C 0 1.55191 0.448008 1.99992 0.999961 1.99992L 4.99992 1.99992C 5.55188 1.99992 5.99988 1.55191 5.99988 0.999961C 5.99988 0.448008 5.55199 0 4.99992 0Z"/>
        <path id="path7_fill" d="M 4.99992 0L 0.999961 0C 0.448008 0 0 0.448008 0 0.999961C 0 1.55191 0.448008 1.99992 0.999961 1.99992L 4.99992 1.99992C 5.55188 1.99992 5.99988 1.55191 5.99988 0.999961C 5.99988 0.448008 5.55188 0 4.99992 0Z"/>
        <path id="path8_fill" d="M 0.999961 11.9999C 1.55191 11.9999 1.99992 11.5519 1.99992 10.9999L 1.99992 0.999961C 1.99992 0.448008 1.55191 0 0.999961 0C 0.448008 0 0 0.448008 0 0.999961L 0 10.9999C 0 11.5519 0.448008 11.9999 0.999961 11.9999Z"/>
        <path id="path9_fill" d="M 1.99992 0.999961C 1.99992 0.448008 1.55191 0 0.999961 0C 0.448008 0 0 0.448008 0 0.999961L 0 10.9999C 0 11.5519 0.448008 11.9999 0.999961 11.9999C 1.55191 11.9999 1.99992 11.5519 1.99992 10.9999L 1.99992 0.999961Z"/>
        <path id="path10_fill" fill-rule="evenodd" d="M 57 8.00006L 51 8.00006C 50.4481 8.00006 50 8.44806 50 9C 50 9.55194 50.4481 9.99994 51 9.99994L 57 9.99994C 57.551 9.99994 58 10.4489 58 10.9999L 58 57C 58 57.551 57.551 57.9999 57 57.9999L 48 57.9999L 48 15.9999L 54 15.9999C 54.5519 15.9999 55 15.5519 55 15C 55 14.4481 54.5519 14.0001 54 14.0001L 48 14.0001L 48 5.00006C 48 3.31805 46.682 2.00006 45 2.00006L 39 2.00006C 37.346 2.00006 36 3.34607 36 5.00006L 36 58.0001L 26 58.0001L 26 6L 33 6C 33.5519 6 34 5.552 34 5.00006C 34 4.44806 33.5519 4.00006 33 4.00006L 26 4.00006L 26 3C 26 1.31799 24.682 0 23 0L 13.0001 0C 11.3461 0 10.0001 1.34601 10.0001 3L 10.0001 12L 5.00003 12C 4.44809 12 4.00009 12.448 4.00009 12.9999C 4.00009 13.5519 4.44809 13.9999 5.00003 13.9999L 10.0001 13.9999L 10.0001 57.9999L 3 57.9999C 2.44897 57.9999 2.00003 57.551 2.00003 57L 2.00003 9C 2.00003 8.44897 2.44897 8.00006 3 8.00006L 6.99997 8.00006C 7.55191 8.00006 7.99991 7.552 7.99991 7.00006C 7.99991 6.44812 7.55203 6 6.99997 6L 3 6C 1.34601 6 0 7.34601 0 9L 0 57C 0 58.654 1.34601 60 3 60L 57 60C 58.654 60 60 58.654 60 57L 60 11.0001C 60 9.34607 58.654 8.00006 57 8.00006ZM 24 58L 12 58L 12 8.00006L 21 8.00006C 21.5519 8.00006 22 7.55206 22 7.00012C 22 6.44812 21.5519 6 21 6L 12 6L 12 3C 12 2.43903 12.439 2.00006 13 2.00006L 22.9999 2.00006C 23.5699 2.00006 23.9999 2.42999 23.9999 3L 24 58ZM 37.9999 57.9999L 46 57.9999L 46 5C 46 4.42999 45.57 4.00006 45 4.00006L 38.9999 4.00006C 38.4389 4.00006 37.9999 4.43903 37.9999 5L 37.9999 8L 43 8C 43.5519 8 43.9999 8.44806 43.9999 9C 43.9999 9.55194 43.5519 9.99994 43 9.99994L 37.9999 9.99994L 37.9999 57.9999Z"/>
        <path id="path11_fill" d="M 2.99988 0L 0.999961 0C 0.448008 0 0 0.448008 0 0.999961C 0 1.55191 0.448008 1.99992 0.999961 1.99992L 3 1.99992C 3.55195 1.99992 3.99996 1.55191 3.99996 0.999961C 3.99996 0.448008 3.55195 0 2.99988 0Z"/>
        <path id="path12_fill" d="M 2.99988 0L 0.999961 0C 0.448008 0 0 0.448008 0 0.999961C 0 1.55191 0.447891 2.00004 0.999961 2.00004L 3 2.00004C 3.55195 2.00004 3.99996 1.55203 3.99996 1.00008C 3.99996 0.448125 3.55195 0 2.99988 0Z"/>
    </defs>
</svg>
