<svg width="60" height="56" viewBox="0 0 60 56" version="1.1" xmlns="http://www.w3.org/2000/svg" xmlns:xlink="http://www.w3.org/1999/xlink">
    <title>001-shinto</title>
    <desc>Created using Figma</desc>
    <g id="Canvas" transform="translate(72 679)">
        <g id="001-shinto">
            <g id="Rectangle-path">
                <use xlink:href="#path0_fill" transform="matrix(0.707107 -0.707107 0.707107 0.707107 -47.743 -649.977)" fill="#323232"/>
            </g>
            <g id="Rectangle-path">
                <use xlink:href="#path0_fill" transform="matrix(0.707107 -0.707107 0.707107 0.707107 -47.7427 -652.574)" fill="#323232"/>
            </g>
            <g id="Rectangle-path">
                <use xlink:href="#path0_fill" transform="matrix(0.707107 -0.707107 0.707107 0.707107 -47.7424 -647.378)" fill="#323232"/>
            </g>
            <g id="Rectangle-path">
                <use xlink:href="#path0_fill" transform="matrix(0.707107 -0.707107 0.707107 0.707107 -47.743 -644.781)" fill="#323232"/>
            </g>
            <g id="Rectangle-path">
                <use xlink:href="#path0_fill" transform="matrix(0.707107 -0.707107 0.707107 0.707107 -38.8556 -649.977)" fill="#323232"/>
            </g>
            <g id="Rectangle-path">
                <use xlink:href="#path0_fill" transform="matrix(0.707107 -0.707107 0.707107 0.707107 -38.8552 -652.574)" fill="#323232"/>
            </g>
            <g id="Rectangle-path">
                <use xlink:href="#path0_fill" transform="matrix(0.707107 -0.707107 0.707107 0.707107 -38.8552 -647.378)" fill="#323232"/>
            </g>
            <g id="Rectangle-path">
                <use xlink:href="#path0_fill" transform="matrix(0.707107 -0.707107 0.707107 0.707107 -38.8557 -644.78)" fill="#323232"/>
            </g>
            <g id="Shape">
                <use xlink:href="#path1_fill" transform="translate(-72 -678.969)" fill="#323232"/>
            </g>
        </g>
    </g>
    <defs>
        <path id="path0_fill" d="M 0 0L 1.83666 0L 1.83666 1.83666L 0 1.83666L 0 0Z"/>
        <path id="path1_fill" fill-rule="evenodd" d="M 60 21.0986L 60 17.2686L 54.9376 13.5187L 52.4705 3.22101L 53.914 3.22101C 55.6901 3.22101 57.135 1.77612 57.135 0L 55.2983 0C 55.2983 0.763245 54.6773 1.38434 53.914 1.38434L 6.08578 1.38434C 5.71593 1.38434 5.36836 1.2403 5.10691 0.978882C 4.84547 0.717407 4.70145 0.369873 4.70145 0.00012207L 2.86477 0C 2.86477 0.860291 3.19981 1.66919 3.80813 2.27765C 4.41644 2.88599 5.22539 3.22101 6.08578 3.22101L 7.52941 3.22101L 5.06215 13.5187L 0 17.2686L 0 21.0986L 14.8034 21.0986L 12.6976 23.2043L 13.9963 24.5031L 20.1943 18.3051L 20.1943 22.9352L 18.0514 22.9352L 18.0514 24.7719L 20.1943 24.7719L 20.1943 40.9964L 18.0514 40.9964L 18.0514 42.8332L 20.1943 42.8332L 20.1943 45.8943L 16.4616 45.8943L 16.4616 40.9964L 8.72449 40.9964L 8.72449 22.6292L 6.8877 22.6292L 6.8877 40.9965L 2.96742 40.9965L 2.96742 45.8945L 0 45.8945L 0 55.017L 60 55.017L 60 45.8945L 57.0326 45.8945L 57.0326 40.9965L 43.5386 40.9965L 43.5386 45.8945L 39.8057 45.8945L 39.8057 42.8333L 41.9486 42.8333L 41.9486 40.9965L 39.8057 40.9965L 39.8057 24.772L 41.9486 24.772L 41.9486 22.9354L 39.8057 22.9354L 39.8057 18.3052L 46.0036 24.5031L 47.3024 23.2043L 30 5.90179L 16.64 19.2619L 1.83668 19.2619L 1.83668 18.1938L 6.69281 14.5967L 9.41824 3.22101L 50.5818 3.22101L 53.3073 14.5967L 58.1631 18.1937L 58.1631 19.2618L 46.6529 19.2618L 46.6529 21.0984L 51.2754 21.0984L 51.2754 39.4658L 53.1121 39.4658L 53.1121 21.0986L 60 21.0986ZM 12.5757 42.8333L 14.6248 42.8333L 14.6248 45.8945L 12.5757 45.8945L 12.5757 42.8333ZM 10.7391 42.8333L 8.72449 42.8333L 8.72449 45.8945L 10.7391 45.8945L 10.7391 42.8333ZM 4.80422 42.8333L 6.88782 42.8333L 6.88782 45.8945L 4.80422 45.8945L 4.80422 42.8333ZM 55.1958 42.8333L 53.1122 42.8333L 53.1122 45.8945L 55.1958 45.8945L 55.1958 42.8333ZM 49.2609 42.8333L 51.2755 42.8333L 51.2755 45.8945L 49.2609 45.8945L 49.2609 42.8333ZM 47.4243 42.8333L 45.3754 42.8333L 45.3754 45.8945L 47.4243 45.8945L 47.4243 42.8333ZM 57.0326 47.7313L 58.1633 47.7313L 58.1633 53.1802L 55.5613 53.1802L 55.5613 51.0374L 53.7246 51.0374L 53.7246 53.1802L 53.1124 53.1802L 53.1124 48.5884L 51.2757 48.5884L 51.2757 53.1802L 1.83668 53.1802L 1.83668 47.7313L 2.96742 47.7313L 57.0326 47.7313ZM 30.9184 40.9965L 37.969 40.9965L 37.969 24.772L 30.9184 24.772L 30.9184 40.9965ZM 30.9184 9.41766L 37.969 16.4683L 37.969 19.2618L 30.9184 19.2618L 30.9184 9.41766ZM 22.031 16.4685L 22.031 22.9354L 37.969 22.9355L 37.969 21.0988L 23.5616 21.0988L 23.5616 19.2621L 29.0816 19.2621L 29.0816 9.41791L 22.031 16.4685ZM 22.031 24.772L 29.0816 24.772L 29.0816 40.9965L 22.031 40.9965L 22.031 24.772ZM 37.969 45.8945L 37.969 42.8333L 22.031 42.8333L 22.031 45.8945L 37.969 45.8945Z"/>
    </defs>
</svg>
