<svg width="60" height="60" viewBox="0 0 60 60" version="1.1" xmlns="http://www.w3.org/2000/svg" xmlns:xlink="http://www.w3.org/1999/xlink">
    <title>002-buddhist-monk</title>
    <desc>Created using Figma</desc>
    <g id="Canvas" transform="translate(-702 680)">
        <g id="002-buddhist-monk">
            <g id="Shape">
                <use xlink:href="#path0_fill" transform="translate(722.96 -658.043)" fill="#323232"/>
            </g>
            <g id="Shape">
                <use xlink:href="#path1_fill" transform="translate(727.949 -645.567)"/>
            </g>
            <g id="Shape">
                <use xlink:href="#path2_fill" transform="translate(734.936 -658.043)"/>
            </g>
            <g id="Shape">
                <use xlink:href="#path3_fill" transform="translate(730.944 -633.092)"/>
            </g>
            <g id="Shape">
                <use xlink:href="#path4_fill" transform="translate(742.921 -629.1)"/>
            </g>
            <g id="Shape">
                <use xlink:href="#path5_fill" transform="translate(702.001 -633.092)"/>
            </g>
            <g id="Shape">
                <use xlink:href="#path6_fill" transform="translate(713.977 -680)"/>
            </g>
        </g>
    </g>
    <defs>
        <path id="path0_fill" d="M 0.93609 1.99453L 1.99597 2.06143L 1.99597 2.24611C 1.99597 2.79699 2.44206 3.24412 2.99399 3.24412C 3.54592 3.24412 3.992 2.79699 3.992 2.24611L 3.992 2.18518L 4.9272 2.24401C 4.94919 2.246 4.96907 2.246 4.99106 2.246C 5.51305 2.246 5.95317 1.83874 5.98615 1.31079C 6.02007 0.759914 5.60194 0.286814 5.052 0.251843L 1.05983 0.00236978C 0.516909 -0.035525 0.0358565 0.385645 0.00193834 0.936522C -0.0320967 1.48646 0.386149 1.95956 0.93609 1.99453Z"/>
        <path id="path1_fill" d="M 0.105457 0.55213C -0.141092 1.04511 0.0594924 1.645 0.552592 1.89155C 0.676335 1.95342 1.82417 2.4954 3.99283 2.4954C 6.16148 2.4954 7.30932 1.95342 7.43306 1.89155C 7.92113 1.64605 8.11774 1.05821 7.87914 0.566165C 7.64066 0.0751711 7.0478 -0.130443 6.55177 0.100083C 6.54382 0.10406 5.68043 0.499265 3.99283 0.499265C 2.30709 0.499265 1.44476 0.104996 1.44476 0.104996C 0.950837 -0.140501 0.352943 0.0590307 0.105457 0.55213Z"/>
        <path id="path2_fill" d="M 0.99713 2.24613C 1.01912 2.24613 1.039 2.24613 1.06005 2.24414L 1.99619 2.18531L 1.99619 2.24624C 1.99619 2.79712 2.44228 3.24426 2.99421 3.24426C 3.54614 3.24426 3.99222 2.79712 3.99222 2.24624L 3.99222 2.06157L 5.0521 1.99466C 5.60204 1.95969 6.02017 1.48659 5.98625 0.93677C 5.95128 0.385893 5.47222 -0.0373821 4.92731 0.00261792L 0.935142 0.252092C 0.386253 0.287062 -0.0319926 0.760162 0.00192554 1.31104C 0.035025 1.83899 0.475142 2.24613 0.99713 2.24613Z"/>
        <path id="path3_fill" d="M 30.8877 11.6612L 29.8278 8.47743C 28.8468 5.51216 27.3676 1.03895 13.1733 1.03895C 12.9327 1.04094 12.6782 1.05497 12.4667 1.17871C 12.3799 1.22959 11.5205 1.75556 10.3888 2.81251C 9.73801 2.50409 9.14421 2.12784 8.98257 1.90234L 8.98257 0.998012C 8.98257 0.447134 8.53649 0 7.98456 0C 7.43263 0 6.98655 0.447134 6.98655 0.998012L 6.98655 1.99602C 6.98655 3.00211 7.94971 3.78058 8.94772 4.32444C 8.6952 4.62187 8.4407 4.93825 8.18526 5.28152C 4.22105 7.36947 0.455322 11.1082 0.292632 11.2708C -0.0975439 11.6611 -0.0975439 12.2918 0.292632 12.682C 0.487251 12.8766 0.742807 12.9744 0.998246 12.9744C 1.2538 12.9744 1.50924 12.8766 1.70386 12.682C 1.73076 12.6551 3.59614 10.8036 5.99848 9.03509C 5.63415 9.8545 5.30281 10.7398 5.02842 11.7019C 4.87766 12.2318 5.18409 12.7848 5.71509 12.9354C 6.23906 13.0871 6.79696 12.7818 6.94866 12.2508C 7.59836 9.97415 8.5924 8.1538 9.60947 6.73953C 9.75322 6.61871 9.87298 6.47509 9.92982 6.30234C 11.3501 4.45099 12.7523 3.39205 13.2723 3.03474C 25.9285 3.0517 27.0873 6.5469 27.9317 9.10386L 28.9957 12.2916C 29.1344 12.7097 29.5236 12.9752 29.9419 12.9752C 30.0456 12.9752 30.1525 12.9582 30.2573 12.9233C 30.7799 12.749 31.0623 12.1842 30.8877 11.6612Z"/>
        <path id="path4_fill" d="M 3.54807 0.168407C 3.08702 -0.138962 2.46819 -0.0132307 2.16374 0.444898C 0.0239768 3.65367 0 7.80946 0 7.98513C 0 8.53601 0.446082 8.98314 0.998012 8.98314C 1.54994 8.98314 1.99602 8.53601 1.99602 7.98513C 1.99602 7.94817 2.01696 4.26443 3.82444 1.55273C 4.13088 1.09355 4.00713 0.473787 3.54807 0.168407Z"/>
        <path id="path5_fill" d="M 30.7087 7.62503C 31.061 7.20187 31.0042 6.57205 30.581 6.21977C 28.2645 4.28959 25.9531 3.07392 23.9529 2.30643L 23.9529 0.998012C 23.9529 0.447134 23.5069 0 22.9549 0C 22.403 0 21.9569 0.447134 21.9569 0.998012L 21.9569 1.64971C 19.6604 1.01497 18.0925 0.998012 17.9648 0.998012C 3.58686 0.998012 2.15867 5.31357 1.11563 8.46444L 0.051656 11.6612C -0.122964 12.1841 0.159492 12.749 0.682416 12.9237C 0.787212 12.9587 0.89306 12.9757 0.997855 12.9757C 1.41598 12.9757 1.80522 12.7102 1.94405 12.292L 3.01201 9.09134C 3.91025 6.37567 5.02803 2.99427 17.9648 2.99427C 18.0216 2.99427 23.6567 3.04912 29.3016 7.75298C 29.7267 8.10608 30.3545 8.04819 30.7087 7.62503Z"/>
        <path id="path6_fill" fill-rule="evenodd" d="M 6.09296 38.3721C 4.48712 35.1593 2.86523 31.2679 2.28839 29.8577C 0.976013 29.5393 -0.00012207 28.3557 0 26.9474L 0 22.9552C 0 21.9542 0.551941 20.5469 2.00104 20.1017C 2.17871 5.83862 6.84247 0 17.9648 0C 29.0872 0 33.751 5.83862 33.9286 20.1017C 35.3777 20.5469 35.9297 21.9542 35.9297 22.9552L 35.9297 26.9474C 35.9297 28.3555 34.9536 29.5393 33.6412 29.8577C 33.0642 31.2679 31.4424 35.1593 29.8356 38.3721C 28.4283 41.1875 25.015 45.9103 17.9648 45.9103C 10.9146 45.9103 7.50128 41.1876 6.09296 38.3721ZM 2.99402 21.9571C 3.54596 21.9571 3.99207 21.5099 3.99207 20.9591L 2.99402 21.9571ZM 3.99207 20.9591C 3.99207 7.13513 7.77863 1.99615 17.9648 1.99615L 3.99207 20.9591ZM 17.9648 1.99615C 28.151 1.99615 31.9376 7.13513 31.9376 20.9591L 17.9648 1.99615ZM 31.9376 20.9591C 31.9376 21.5099 32.3836 21.9571 32.9355 21.9571L 31.9376 20.9591ZM 32.9355 21.9571C 33.74 21.9571 33.9216 22.506 33.9336 22.9551L 32.9355 21.9571ZM 33.9336 22.9551L 33.9336 26.9474L 33.9336 22.9551ZM 33.9336 26.9474C 33.9336 27.4973 33.4865 27.9454 32.9355 27.9454L 33.9336 26.9474ZM 32.9355 27.9454C 32.5274 27.9454 32.1611 28.1939 32.0084 28.5722L 32.9355 27.9454ZM 32.0084 28.5722C 31.9895 28.6221 30.0063 33.5694 28.0502 37.4798L 32.0084 28.5722ZM 28.0502 37.4798C 26.5831 40.4151 23.6418 43.9142 17.9649 43.9142L 28.0502 37.4798ZM 17.9649 43.9142C 12.287 43.9142 9.3468 40.415 7.8786 37.4798L 17.9649 43.9142ZM 7.8786 37.4798C 5.92444 33.5714 3.94025 28.6221 3.92133 28.5722L 7.8786 37.4798ZM 3.92133 28.5722C 3.76855 28.1939 3.40234 27.9454 2.99414 27.9454L 3.92133 28.5722ZM 2.99414 27.9454C 2.4433 27.9454 1.99615 27.4973 1.99615 26.9474L 2.99414 27.9454ZM 1.99615 26.9474L 1.99603 22.9672L 1.99615 26.9474Z"/>
    </defs>
</svg>
